<svg width="566" height="566" viewBox="0 0 566 566" fill="none" xmlns="http://www.w3.org/2000/svg">
<path d="M493.247 471.327C494.554 472.95 495.929 474.275 497.345 475.235C506.134 481.195 512.32 490.666 512.385 516.639" stroke="#009245" stroke-width="21.6365"/>
<path d="M506.072 81.5027C505.758 83.5475 505.393 85.6085 504.975 87.6791C500.994 107.369 500.223 139.065 504.589 156.834C504.766 157.555 504.934 158.313 505.091 159.105" stroke="#009245" stroke-width="22.9607"/>
<path d="M97.4065 216.09C94.1749 223.638 89.7581 230.571 84.3273 236.073C71.0382 249.538 68.3631 273.21 74.4665 294.312" stroke="#009245" stroke-width="42.9147"/>
<path d="M212.384 355.91C214.302 378.137 209.346 404.193 200.121 416.163C197.943 418.988 196.307 422.747 195.13 427.083" stroke="#009245" stroke-width="26.8024"/>
<path d="M201.648 11.5745C201.478 19.8398 205.18 25.9315 209.222 30.55" stroke="#009245" stroke-width="11.456"/>
<path d="M301.727 480.776C426.318 480.776 527.476 496.844 527.476 516.635C527.476 536.425 426.318 552.493 301.727 552.493C177.137 552.493 75.9784 536.425 75.9784 516.635C75.9784 496.844 177.137 480.776 301.727 480.776Z" fill="#FFD527"/>
<path d="M78.5282 516.78C79.5195 478.224 93.2314 459.771 123.185 429.116C176.003 375.061 266.246 359.038 341.508 359.038C445.381 359.038 527.521 439.256 523.408 516.769" fill="#FFD527"/>
<path d="M78.5282 516.78C79.5195 478.224 93.2314 459.771 123.185 429.116C176.003 375.061 266.246 359.038 341.508 359.038C445.381 359.038 527.521 439.256 523.408 516.769" stroke="#F98F16" stroke-width="10.5" stroke-linecap="round" stroke-linejoin="round"/>
<path d="M494.739 454.964C498.112 473.01 500.412 487.537 501.51 500.824" stroke="#FBED20" stroke-width="10.5" stroke-linecap="round" stroke-linejoin="round"/>
<path d="M117.704 478.462C88.3383 503.47 54.6689 512.159 42.4999 497.87C30.3309 483.581 34.7962 424.545 121.889 404.774C128.899 403.183 135.907 401.961 142.892 401.093" fill="#FFD427"/>
<path d="M117.704 478.462C88.3383 503.47 54.6689 512.159 42.4999 497.87C30.3309 483.581 34.7962 424.545 121.889 404.774C128.899 403.183 135.907 401.961 142.892 401.093" stroke="#F98F16" stroke-width="10.5" stroke-miterlimit="10" stroke-linecap="round"/>
<path d="M55.3824 476.013C57.0067 462.378 66.7394 446.779 87.2049 435.617" stroke="white" stroke-width="10.5" stroke-linecap="round" stroke-linejoin="round"/>
<path d="M474.487 499.708C508.086 523.853 537.687 523.163 547.287 511.153C564.664 489.412 512.797 436.604 479.063 417.902C469.595 412.653 459.67 409.005 449.604 406.87" fill="#FFD427"/>
<path d="M474.487 499.708C508.086 523.853 537.687 523.163 547.287 511.153C564.664 489.412 512.797 436.604 479.063 417.902C469.595 412.653 459.67 409.005 449.604 406.87" stroke="#F98F16" stroke-width="10.5" stroke-miterlimit="10" stroke-linecap="round"/>
<path d="M532.974 494.249C528.709 483.845 519.534 468.907 500.028 451.531" stroke="#FBED20" stroke-width="10.5" stroke-linecap="round" stroke-linejoin="round"/>
<path d="M361.763 35.9574C293.278 24.7192 235.07 32.8804 231.75 54.1852C228.43 75.49 223.298 153.794 223.298 153.794L450.825 188.943C450.825 188.943 476.434 116.187 479.754 94.8821C483.074 73.5773 430.248 47.1956 361.763 35.9574Z" fill="#521F0B"/>
<path d="M350.707 35.7042C329.844 32.2806 309.936 30.6578 292.241 30.658C284.473 85.7197 277.17 157.768 277.17 157.768L325.633 162.758C325.633 162.758 344.161 70.8844 350.707 35.7042Z" fill="#91492D"/>
<path d="M369.777 41.4026C377.163 43.0482 381.464 44.0771 389.909 46.064C374.165 110.531 360.124 163.971 360.124 163.971L346.003 161.378C346.003 161.378 363.231 76.583 369.777 41.4026Z" fill="#91492D"/>
<path d="M361.763 35.9574C293.278 24.7192 235.07 32.8804 231.75 54.1852C228.43 75.49 223.298 153.794 223.298 153.794L450.825 188.943C450.825 188.943 476.434 116.187 479.754 94.8821C483.074 73.5773 430.248 47.1956 361.763 35.9574Z" stroke="#230E07" stroke-width="9.27488"/>
<path d="M344.05 148.871C449.409 166.16 530.806 206.809 525.698 239.585C520.591 272.361 430.901 284.936 325.542 267.646C220.183 250.357 138.786 209.708 143.893 176.932C149.001 144.156 238.691 131.582 344.05 148.871Z" fill="#521E0A"/>
<path d="M344.05 148.871C449.409 166.16 530.806 206.809 525.698 239.585C520.591 272.361 430.901 284.936 325.542 267.646C220.183 250.357 138.786 209.708 143.893 176.932C149.001 144.156 238.691 131.582 344.05 148.871Z" stroke="#230E07" stroke-width="10.1991"/>
<path d="M158.632 293.436C116.445 293.233 63.1148 379.547 110.913 350.809C80.2038 366.907 95.5641 398.036 114.319 376.805C100.135 391.885 115.078 413.549 126.565 400.762C125.826 413.287 161.987 432.965 198.164 394.467" stroke="#FA9016" stroke-width="18.2574" stroke-linecap="round" stroke-linejoin="round"/>
<path d="M158.632 293.436C116.445 293.233 63.1148 379.547 110.913 350.809C80.2038 366.907 95.5641 398.036 114.319 376.805C100.135 391.885 115.078 413.549 126.565 400.762C125.826 413.287 161.987 432.965 198.164 394.467" fill="#FFD527"/>
<path d="M464.186 328.349C505.765 335.974 549.994 431.92 505.673 394.402C534.376 416.149 516.247 444.334 499.815 419.688C512.337 437.353 495.531 456.18 485.445 441.3C484.968 453.924 447.451 466.834 415.517 421.742" stroke="#FA9016" stroke-width="18.2895" stroke-linecap="round" stroke-linejoin="round"/>
<path d="M464.186 328.349C505.765 335.974 549.994 431.92 505.673 394.402C534.376 416.149 516.247 444.334 499.815 419.688C512.337 437.353 495.531 456.18 485.445 441.3C484.968 453.924 447.451 466.834 415.517 421.742" fill="#FFD527"/>
<path d="M148.376 450.137C123.213 424.596 108.464 391.759 108.963 353.596C110.157 262.207 196.073 176.904 303.38 180.471C446.608 185.232 498.765 273.989 497.571 365.377C497.068 403.933 481.157 436.113 454.872 460.19" fill="#FFD527"/>
<path d="M148.376 450.137C123.213 424.596 108.464 391.759 108.963 353.596C110.157 262.207 196.073 176.904 303.38 180.471C446.608 185.232 498.765 273.989 497.571 365.377C497.068 403.933 481.157 436.113 454.872 460.19" stroke="#F98F16" stroke-width="10.3407" stroke-linecap="round" stroke-linejoin="round"/>
<path d="M434.09 259.6C470.411 296.485 500.123 375.537 441.552 437.609" stroke="#FBED20" stroke-width="10.3407" stroke-linecap="round" stroke-linejoin="round"/>
<path d="M129.213 370.48C128.001 365.341 127.194 360.054 126.815 354.63" stroke="white" stroke-width="10.3407" stroke-linecap="round" stroke-linejoin="round"/>
<path d="M148.995 290.255C163.081 254.476 210.625 199.612 300.628 202.183" stroke="white" stroke-width="10.3407" stroke-linecap="round" stroke-linejoin="round"/>
<path d="M352.604 237.048C372.907 240.264 385.552 267.633 380.823 298.127C376.095 328.621 355.772 350.769 335.469 347.553C315.166 344.338 302.521 316.969 307.25 286.475C311.978 255.981 332.302 233.833 352.604 237.048Z" fill="black"/>
<path d="M319.843 302.263C318.105 314.854 328.866 325.38 341.508 325.571C354.15 325.762 359.592 308.602 346.589 297.319C342.091 293.416 332.086 285.255 330.589 278.188C328.958 270.491 333.955 263.813 343.572 263.079C353.19 262.344 363.308 272.028 361.261 285.252" stroke="#30E855" stroke-width="6.89867" stroke-linecap="round" stroke-linejoin="round"/>
<path d="M349.614 255.328L333.975 331.589" stroke="#30E855" stroke-width="6.89867" stroke-linecap="round" stroke-linejoin="round"/>
<g opacity="0.97">
<path d="M340.844 244.147C343.008 246.057 342.458 250.221 339.618 253.439C336.777 256.658 332.714 257.72 330.55 255.81C328.386 253.9 328.936 249.737 331.777 246.518C334.617 243.3 338.681 242.238 340.844 244.147Z" fill="white"/>
</g>
<path d="M228.492 225.22C248.011 229.302 258.989 256.631 252.99 286.209C246.992 315.787 226.274 336.488 206.755 332.406C187.236 328.324 176.259 300.994 182.257 271.416C188.256 241.838 208.974 221.137 228.492 225.22Z" fill="black"/>
<path d="M218.505 232.036C220.792 234.366 220.16 238.794 217.095 241.916C214.03 245.038 209.684 245.681 207.398 243.35C205.111 241.019 205.743 236.592 208.808 233.469C211.873 230.347 216.219 229.705 218.505 232.036Z" fill="white"/>
<path d="M195.712 288.135C195.277 300.564 206.697 309.698 218.912 308.582C231.127 307.467 234.684 290.211 221.027 280.572C216.303 277.237 205.846 270.327 203.705 263.606C201.372 256.284 205.534 249.273 214.74 247.568C223.946 245.863 234.662 254.244 233.992 267.321" stroke="#30E855" stroke-width="6.71976" stroke-linecap="round" stroke-linejoin="round"/>
<path d="M219.804 239.406L212.238 315.213" stroke="#30E855" stroke-width="6.71976" stroke-linecap="round" stroke-linejoin="round"/>
<path d="M343.496 404.674C337.78 448.298 293.568 528.379 247.54 520.633C199.854 512.608 194.178 428.823 192.831 384.013C166.114 379.747 162.245 369.731 162.245 365.061C162.246 353.3 174.978 352.167 196.65 353.43C234.453 355.633 236.37 331.108 264.167 332.256C295.193 333.537 295.521 366.09 322.053 369.6C350.313 373.339 345.78 388.423 343.496 404.674Z" fill="#FF5D1F"/>
<path d="M343.496 404.674C337.78 448.298 293.568 528.379 247.54 520.633C199.854 512.608 194.178 428.823 192.831 384.013C166.114 379.747 162.245 369.731 162.245 365.061C162.246 353.3 174.978 352.167 196.65 353.43C234.453 355.633 236.37 331.108 264.167 332.256C295.193 333.537 295.521 366.09 322.053 369.6C350.313 373.339 345.78 388.423 343.496 404.674Z" stroke="#CF3502" stroke-width="8.27254" stroke-linecap="round" stroke-linejoin="round"/>
<path d="M322.131 394.994C277.71 397.907 240.06 393.424 211.057 388.323C211.304 435.241 214.943 489.728 245.993 493.441C282.034 497.751 320.512 411.835 322.131 394.994Z" fill="#7D0909"/>
<path d="M280.666 418.183C285.315 406.265 244.982 408.004 244.356 417.12C243.106 435.302 246.23 444.794 252.527 460.801C267.633 450.666 278.742 423.12 280.666 418.183Z" fill="#CF3502"/>
<path d="M327.47 393.99C283.525 398.663 230.08 394.848 193.701 384.457" stroke="#7D0909" stroke-width="8.27254" stroke-linecap="round" stroke-linejoin="round"/>
<path d="M197.012 364.289C217.025 365.408 233.462 358.963 252.819 344.671" stroke="#FFB484" stroke-width="8.27254" stroke-linecap="round" stroke-linejoin="round"/>
<path d="M211.43 305.81C223.944 305.524 234.878 315.65 235.83 328.408C236.782 341.165 227.394 351.754 214.879 352.04C202.364 352.325 191.431 342.199 190.479 329.442C189.527 316.685 198.915 306.095 211.43 305.81Z" stroke="#D7D0D0" stroke-width="6.00403"/>
<path d="M321.949 320.948C334.575 320.636 345.612 330.647 346.579 343.289C347.546 355.931 338.08 366.449 325.453 366.761C312.827 367.073 301.79 357.061 300.823 344.419C299.856 331.777 309.323 321.26 321.949 320.948Z" stroke="#D7D0D0" stroke-width="6.00403"/>
<path d="M208.178 304.938C220.824 304.935 231.626 315.2 232.285 327.846C232.943 340.492 223.21 350.762 210.564 350.764C197.918 350.767 187.115 340.502 186.457 327.856C185.799 315.21 195.532 304.941 208.178 304.938Z" stroke="white" stroke-width="6.00405"/>
<path d="M318.729 319.837C331.375 319.834 342.177 330.099 342.835 342.745C343.494 355.391 333.761 365.661 321.114 365.664C308.468 365.667 297.666 355.401 297.008 342.756C296.349 330.11 306.083 319.84 318.729 319.837Z" stroke="white" stroke-width="6.00405"/>
<path d="M70.257 504.832C69.6257 506.579 68.968 508.155 68.2937 509.53C64.2355 517.811 57.2345 526.075 57.187 553.922" stroke="#19D672" stroke-width="28.1466"/>
<path d="M68.2937 509.53C64.4986 517.275 58.1289 525.005 57.281 548.753" stroke="#009245" stroke-width="22.5173"/>
<path d="M62.5176 521.017C60.9191 524.852 59.4422 529.572 58.4495 535.895" stroke="#19D673" stroke-width="18.7644" stroke-linecap="round" stroke-linejoin="round"/>
<path d="M58.8004 528.555C64.1215 528.555 68.4418 530.902 68.4418 533.793C68.4418 536.684 64.1215 539.031 58.8004 539.031C53.4793 539.031 49.1589 536.684 49.1589 533.793C49.1589 530.902 53.4793 528.555 58.8004 528.555Z" fill="#47FF87"/>
<path d="M57.7143 95.1263C66.5581 116.301 68.1157 149.434 58.1311 168.152C53.5732 176.695 51.7813 190.21 52.2688 204.514" stroke="#19D672" stroke-width="61.1882"/>
<path d="M61.2828 105.724C66.7637 126.216 66.5702 152.332 58.1311 168.152C54.7937 174.41 52.9387 183.334 52.3771 193.281" stroke="#009245" stroke-width="48.9506"/>
<path d="M64.9972 133.476C65.1232 145.583 63.2759 157.369 59.0486 166.324" stroke="#19D673" stroke-width="40.7922" stroke-linecap="round" stroke-linejoin="round"/>
<path d="M63.4361 140.893C75.0037 140.893 84.3958 145.995 84.3958 152.279C84.3958 158.563 75.0037 163.665 63.4361 163.665C51.8684 163.665 42.4764 158.563 42.4764 152.279C42.4764 145.995 51.8684 140.893 63.4361 140.893Z" fill="#47FF87"/>
<path d="M474.748 226.152C476.68 236.367 479.691 245.888 483.59 253.109C493.749 271.923 493.333 309.326 484.727 334.99" stroke="#19D672" stroke-width="61.1882"/>
<path d="M477.309 237.066C479.016 243.062 481.124 248.545 483.589 253.109C492.397 269.42 493.257 299.704 487.721 324.197" stroke="#009245" stroke-width="48.9506"/>
<path d="M487.538 263.008C490.325 272.547 491.476 284.318 491.142 296.374" stroke="#19D673" stroke-width="40.7922" stroke-linecap="round" stroke-linejoin="round"/>
<path d="M490.598 268.231C502.166 268.231 511.558 273.333 511.558 279.617C511.558 285.901 502.166 291.003 490.598 291.003C479.031 291.003 469.639 285.901 469.639 279.617C469.639 273.333 479.031 268.231 490.598 268.231Z" fill="#47FF87"/>
<path d="M354.555 354.85C346.618 379.17 357.077 413.59 367.667 432.809C372.212 441.06 374.261 451.836 374.649 462.873" stroke="#19D672" stroke-width="61.1882"/>
<path d="M352.228 365.804C349.606 388.683 358.589 416.333 367.667 432.809C370.653 438.229 372.561 444.737 373.629 451.693" stroke="#009245" stroke-width="48.9506"/>
<path d="M353.76 393.739C355.985 405.269 359.832 416.474 364.051 425.622" stroke="#19D673" stroke-width="40.7922" stroke-linecap="round" stroke-linejoin="round"/>
<path d="M357.888 396.856C369.456 396.856 378.848 401.958 378.848 408.242C378.848 414.526 369.456 419.628 357.888 419.628C346.321 419.628 336.929 414.526 336.929 408.242C336.929 401.958 346.321 396.856 357.888 396.856Z" fill="#47FF87"/>
<path d="M364.517 12.4097C364.678 26.3393 359.102 34.5113 356.01 39.8378C353.411 44.3147 351.463 49.678 350.417 55.6564" stroke="#19D672" stroke-width="25.1892"/>
<path d="M364.356 17.0131C363.422 28.1903 358.744 35.1264 356.01 39.8378C354.079 43.1627 352.509 46.9739 351.4 51.1645" stroke="#009245" stroke-width="20.1513"/>
<path d="M361.896 28.2639C360.072 33.257 357.679 36.9624 356.01 39.8378C355.884 40.0551 355.76 40.2736 355.637 40.4943" stroke="#19D673" stroke-width="16.7928" stroke-linecap="round" stroke-linejoin="round"/>
<path d="M362.92 20.3927C367.682 20.3927 371.548 22.4931 371.548 25.0799C371.548 27.6668 367.682 29.7671 362.92 29.7671C358.158 29.7671 354.292 27.6668 354.292 25.0799C354.292 22.4931 358.158 20.3927 362.92 20.3927Z" fill="#47FF87"/>
</svg>
