<svg width="293" height="83" viewBox="0 0 293 83" fill="none" xmlns="http://www.w3.org/2000/svg">
<path d="M44.048 39.24L48.688 52.04H54.928L44.048 29.48L33.136 52.04H39.376L44.048 39.24ZM51.408 53V56.52H56.784V48.36H31.28V56.52H36.656V53H51.408ZM64.066 41.8C64.066 40.4773 64.322 39.3147 64.834 38.312C65.3673 37.288 66.1033 36.488 67.042 35.912C68.002 35.336 69.122 35.048 70.402 35.048C71.7033 35.048 72.8233 35.336 73.762 35.912C74.7007 36.488 75.426 37.288 75.938 38.312C76.45 39.3147 76.706 40.4773 76.706 41.8C76.706 43.1227 76.4393 44.296 75.906 45.32C75.394 46.3227 74.658 47.112 73.698 47.688C72.7593 48.264 71.6607 48.552 70.402 48.552C69.122 48.552 68.002 48.264 67.042 47.688C66.1033 47.112 65.3673 46.3227 64.834 45.32C64.322 44.296 64.066 43.1227 64.066 41.8ZM58.338 41.8C58.338 43.528 58.626 45.1173 59.202 46.568C59.7993 48.0187 60.6313 49.2773 61.698 50.344C62.786 51.4107 64.066 52.2427 65.538 52.84C67.01 53.416 68.6313 53.704 70.402 53.704C72.1513 53.704 73.762 53.416 75.234 52.84C76.706 52.2427 77.9753 51.4107 79.042 50.344C80.13 49.2773 80.962 48.0187 81.538 46.568C82.1353 45.1173 82.434 43.528 82.434 41.8C82.434 40.072 82.1353 38.4933 81.538 37.064C80.9407 35.6347 80.098 34.3973 79.01 33.352C77.922 32.3067 76.642 31.5067 75.17 30.952C73.7193 30.376 72.13 30.088 70.402 30.088C68.6953 30.088 67.106 30.376 65.634 30.952C64.162 31.5067 62.882 32.3067 61.794 33.352C60.706 34.3973 59.8527 35.6347 59.234 37.064C58.6367 38.4933 58.338 40.072 58.338 41.8ZM87.4033 43.624H104.363V38.76H87.4033V43.624ZM100.939 30.6V53H106.347V30.6H100.939ZM85.8993 30.6V53H91.3073V30.6H85.8993ZM114.576 48.68H126.416L126.064 44.552H114.96L114.576 48.68ZM120.432 38.824L123.6 46.088L123.408 47.464L126.096 53H132.24L120.432 29.192L108.655 53H114.768L117.552 47.24L117.296 46.056L120.432 38.824ZM130.097 35.432H136.241V53H141.649V35.432H147.825V30.6H130.097V35.432ZM153.858 53H165.154V48.552H153.858V53ZM153.858 35.048H165.154V30.6H153.858V35.048ZM153.858 43.4H164.514V39.048H153.858V43.4ZM150.274 30.6V53H155.458V30.6H150.274ZM179.341 30.6V53H184.749V35.432H192.653V30.6H179.341ZM195.337 30.6V53H200.745V30.6H195.337ZM198.729 35.048H203.113C204.201 35.048 205.054 35.2933 205.673 35.784C206.291 36.2747 206.601 36.9893 206.601 37.928C206.601 38.8453 206.291 39.5493 205.673 40.04C205.054 40.5307 204.201 40.776 203.113 40.776H198.729V45.224H203.113C205.011 45.224 206.601 44.936 207.881 44.36C209.182 43.7627 210.163 42.92 210.825 41.832C211.486 40.7227 211.817 39.4213 211.817 37.928C211.817 36.392 211.486 35.08 210.825 33.992C210.163 32.904 209.182 32.072 207.881 31.496C206.601 30.8987 205.011 30.6 203.113 30.6H198.729V35.048ZM216.544 48.68H228.384L228.032 44.552H216.928L216.544 48.68ZM222.4 38.824L225.568 46.088L225.376 47.464L228.064 53H234.208L222.4 29.192L210.624 53H216.736L219.52 47.24L219.264 46.056L222.4 38.824ZM242.316 41.576L248.428 50.92L254.572 41.576L255.916 53H261.612L257.996 29.48L248.428 43.144L238.891 29.48L235.276 53H240.972L242.316 41.576Z" fill="white"/>
<rect y="19" width="9" height="45" fill="white"/>
</svg>
