<svg width="1092" height="123" viewBox="0 0 1092 123" fill="none" xmlns="http://www.w3.org/2000/svg">
<g clip-path="url(#clip0_3_7)">
<path d="M631.701 90.8329C637.617 90.8329 644.034 92.8529 651.138 99.1235C651.85 99.7518 652.797 98.9713 652.176 98.1913C645.195 89.4104 638.738 87.7378 632.298 86.3244C624.422 84.5954 620.37 80.1803 617.547 75.333C616.985 74.3679 616.733 74.5382 616.683 75.7775C616.622 77.294 616.726 79.3006 617.067 81.2748C616.748 81.2894 616.429 81.285 616.108 81.285C604.84 81.285 595.705 72.1847 595.705 60.9595C595.705 49.7335 604.84 40.6334 616.108 40.6334C627.376 40.6334 636.511 49.7335 636.511 60.9595C636.511 61.7577 636.471 62.5473 636.383 63.3222C634.891 63.0548 631.959 63.0247 629.902 63.2019C629.129 63.2684 629.236 63.6274 629.822 63.7327C636.567 64.9467 641.201 69.1109 642.259 76.6669C642.285 76.8411 642.512 76.8929 642.602 76.7425C645.377 72.1292 646.972 66.7295 646.972 60.9595C646.972 43.9779 633.154 30.2114 616.108 30.2114C599.062 30.2114 585.242 43.9779 585.242 60.9595C585.242 77.9408 599.062 91.7088 616.108 91.7088C620.629 91.7088 625.116 90.8329 631.701 90.8329ZM633.998 79.6684C635.371 80.8255 635.789 82.2004 635.063 83.1705C634.659 83.7021 634.005 83.9954 633.22 83.9954C632.449 83.9954 631.663 83.7111 631.119 83.2376C629.871 82.1504 629.504 80.3884 630.319 79.3871C630.638 78.9954 631.155 78.7797 631.776 78.7797C632.529 78.7797 633.319 79.096 633.998 79.6684ZM640.334 76.7317C640.535 78.0791 640.109 78.6373 639.679 78.6373C639.211 78.6373 638.624 78.0907 637.929 77.0131C637.245 75.949 636.995 74.728 637.333 74.1115C637.559 73.7032 638.026 73.5259 638.619 73.7486C639.764 74.1801 640.213 75.9265 640.334 76.7317ZM683.118 69.69L679.561 65.4266C679.187 64.9792 679.506 64.3016 680.09 64.3016H687.535C687.888 63.2504 688.09 62.1272 688.09 60.9609C688.09 55.6202 684.099 51.0151 678.622 51.0151C673.145 51.0151 669.155 55.6202 669.155 60.9609C669.155 66.3019 673.145 70.8417 678.622 70.8417C680.281 70.8417 681.802 70.4193 683.118 69.69ZM699.22 76.8954C699.605 77.3216 699.288 78.0073 698.706 78.0073H690.582C690.252 78.0073 689.938 77.8609 689.727 77.6076L688.349 75.9582C685.545 77.7693 682.206 78.8265 678.622 78.8265C668.733 78.8265 660.689 70.8123 660.689 60.9609C660.689 51.1098 668.733 43.0949 678.622 43.0949C688.511 43.0949 696.555 51.1098 696.555 60.9609C696.555 64.5124 695.506 67.8217 693.705 70.6056L699.22 76.8954ZM774.264 43.9171H767.633C767.146 43.9171 766.752 44.3106 766.752 44.7963V77.1259C766.752 77.6108 767.146 78.0045 767.633 78.0045H774.264C774.75 78.0045 775.146 77.6108 775.146 77.1259V44.7963C775.146 44.3106 774.75 43.9171 774.264 43.9171ZM763.108 43.9171H755.689C755.301 43.9171 754.96 44.1674 754.845 44.5347L748.976 63.64L742.524 44.5134C742.405 44.1572 742.068 43.9171 741.69 43.9171H736.513C736.132 43.9171 735.796 44.1572 735.675 44.5134L729.225 63.64L723.355 44.5347C723.241 44.1674 722.9 43.9171 722.51 43.9171H715.093C714.809 43.9171 714.543 44.0522 714.378 44.2793C714.212 44.5071 714.168 44.7989 714.256 45.0644L725.151 77.4117C725.272 77.7675 725.608 78.0073 725.989 78.0073H731.876C732.256 78.0073 732.592 77.7675 732.712 77.4126L739.1 58.5143L745.487 77.4126C745.608 77.7675 745.945 78.0073 746.325 78.0073H752.212C752.592 78.0073 752.929 77.7675 753.048 77.4117L763.944 45.0644C764.033 44.7989 763.989 44.5071 763.823 44.2793C763.658 44.0522 763.391 43.9171 763.108 43.9171ZM711.449 44.7963V77.1259C711.449 77.6108 711.054 78.0045 710.566 78.0045H703.937C703.451 78.0045 703.055 77.6108 703.055 77.1259V44.7963C703.055 44.3106 703.451 43.9171 703.937 43.9171H710.566C711.054 43.9171 711.449 44.3106 711.449 44.7963Z" fill="#F57D14"/>
<path d="M240.61 44.0119C241.943 45.7517 243.073 47.642 243.974 49.6447L218.395 68.6677L207.704 61.9071V53.7736L218.395 60.5344L240.61 44.0119Z" fill="#21A038"/>
<path d="M196.794 61.3331C196.794 60.968 196.802 60.6055 196.821 60.245L190.342 59.9248C190.32 60.392 190.306 60.8636 190.306 61.3396C190.303 65.059 191.028 68.742 192.44 72.1779C193.851 75.6139 195.922 78.7346 198.531 81.3615L203.128 76.7275C201.119 74.7091 199.525 72.3099 198.437 69.6678C197.35 67.026 196.792 64.1934 196.794 61.3331Z" fill="url(#paint0_linear_3_7)"/>
<path d="M218.39 39.5473C218.75 39.5473 219.11 39.5607 219.467 39.5786L219.791 33.0402C219.327 33.0181 218.859 33.0069 218.39 33.0069C214.701 33.0024 211.047 33.733 207.64 35.1566C204.232 36.5802 201.138 38.6688 198.531 41.3027L203.128 45.9389C205.128 43.9115 207.506 42.3032 210.126 41.2062C212.745 40.1094 215.553 39.5456 218.39 39.5473Z" fill="url(#paint1_linear_3_7)"/>
<path d="M218.39 83.1191C218.028 83.1191 217.668 83.1191 217.309 83.0902L216.985 89.6262C217.451 89.65 217.919 89.6619 218.39 89.6619C222.076 89.6658 225.727 88.9348 229.132 87.5107C232.539 86.0867 235.632 83.9978 238.236 81.3639L233.648 76.7301C231.648 78.7562 229.269 80.3637 226.651 81.4602C224.032 82.5566 221.225 83.1206 218.39 83.1191Z" fill="url(#paint2_linear_3_7)"/>
<path d="M230.563 43.3489L236.023 39.2889C231.032 35.212 224.802 32.9927 218.38 33.0041V39.547C222.728 39.5415 226.977 40.8671 230.563 43.3489Z" fill="url(#paint3_linear_3_7)"/>
<path d="M246.47 61.3331C246.473 59.631 246.326 57.932 246.029 56.2564L239.984 60.7501C239.984 60.9439 239.984 61.1373 239.984 61.3331C239.986 64.377 239.354 67.3873 238.129 70.1689C236.903 72.9504 235.111 75.441 232.87 77.4795L237.231 82.3406C240.143 79.6873 242.471 76.4463 244.063 72.8274C245.656 69.2083 246.475 65.2922 246.47 61.3331Z" fill="#21A038"/>
<path d="M218.39 83.1191C215.372 83.1201 212.387 82.4818 209.631 81.2457C206.872 80.0094 204.403 78.2025 202.382 75.9424L197.565 80.3382C200.195 83.2776 203.408 85.6265 206.995 87.2327C210.583 88.8388 214.464 89.6665 218.39 89.6617V83.1191Z" fill="url(#paint4_linear_3_7)"/>
<path d="M203.908 45.1864L199.55 40.3255C196.637 42.9782 194.307 46.2191 192.715 49.838C191.122 53.457 190.301 57.3733 190.306 61.3329H196.794C196.792 58.2891 197.425 55.2787 198.651 52.4972C199.876 49.7158 201.667 47.225 203.908 45.1864Z" fill="url(#paint5_linear_3_7)"/>
<path d="M352.362 49.2049L360.398 43.3006H333.505V78.7804H360.398V72.8761H341.179V63.7878H357.573V57.8837H341.179V49.2049H352.362Z" fill="#21A038"/>
<path d="M315.412 57.1224H306.076V49.2026H320.976L329.006 43.2803H298.407V78.7601H314.424C323.405 78.7601 328.557 74.7006 328.557 67.6209C328.557 60.8479 323.889 57.1224 315.412 57.1224ZM314.079 72.8539H306.076V63.023H314.079C318.936 63.023 321.213 64.6704 321.213 67.9385C321.213 71.2065 318.79 72.8539 314.079 72.8539Z" fill="#21A038"/>
<path d="M380.164 43.2955H365.526V78.7751H373.198V68.7243H380.164C389.503 68.7243 395.281 63.8229 395.281 55.991C395.281 48.1594 389.503 43.2955 380.164 43.2955ZM380.002 62.8156H373.198V49.2043H380.002C384.914 49.2043 387.626 51.6227 387.626 56.0126C387.626 60.4025 384.914 62.8156 380.002 62.8156Z" fill="#21A038"/>
<path d="M286.893 70.4023C284.912 71.4727 282.691 72.027 280.436 72.0139C273.691 72.0139 268.798 67.2107 268.798 60.5966C268.798 53.9825 273.691 49.169 280.436 49.169C282.87 49.1277 285.251 49.8635 287.235 51.2687L292.602 47.3264L292.239 47.0694C289.109 44.3239 284.925 42.8698 280.138 42.8698C274.944 42.8698 270.235 44.6126 266.873 47.7832C265.173 49.4157 263.828 51.3801 262.923 53.554C262.017 55.7278 261.571 58.0643 261.611 60.4182C261.575 62.7957 262.02 65.1561 262.918 67.3586C263.818 69.561 265.151 71.5601 266.842 73.2369C270.22 76.5334 274.918 78.3496 280.075 78.3496C285.463 78.3496 290.172 76.4755 293.36 73.0637L288.556 69.4941L286.893 70.4023Z" fill="#21A038"/>
<path d="M425.702 57.1224H416.37V49.2026H436.425V43.2803H408.696V78.7601H424.694C433.673 78.7601 438.826 74.7006 438.826 67.6209C438.848 60.8479 434.18 57.1224 425.702 57.1224ZM424.37 72.8539H416.37V63.023H424.37C429.227 63.023 431.502 64.6704 431.502 67.9385C431.502 71.2065 429.101 72.8539 424.37 72.8539Z" fill="#21A038"/>
<path d="M526.055 78.7093H518.277V43.2295H526.055V58.1314H530.289L541.721 43.2295H550.537L536.976 60.1077L552.721 78.7093H542.4L530.828 64.7555H526.055V78.7093Z" fill="#21A038"/>
<path d="M467.085 71.9667H450.632L447.843 78.8564H439.565L454.998 43.3766H463.274L478.456 78.8564H469.876L467.085 71.9667ZM464.51 65.5381L458.908 51.7585L453.274 65.5381H464.51Z" fill="#21A038"/>
<path d="M488.927 43.3766V58.1924H505.024V43.3766H513.044V78.8564H505.024V64.8763H488.927V78.8564H480.908V43.3766H488.927Z" fill="#21A038"/>
<path d="M125.474 33.6709C125.222 33.4152 125.074 33.1811 124.865 32.856C124.757 32.6913 124.639 32.5135 124.509 32.3228C124.87 31.9068 125.174 31.4257 125.404 30.8968L126.326 28.8034L124.057 28.4783C123.675 28.422 123.057 28.2616 122.336 28.0711C120.945 27.707 119.159 27.2386 117.212 27.035C117.877 26.7446 118.442 26.2201 118.837 25.5093L119.211 24.8377C119.211 24.8377 119.111 23.897 118.746 23.6024C118.885 23.312 118.994 22.9911 119.068 22.64L119.376 21.1403L117.925 20.6463C117.699 20.5684 117.473 20.5119 117.251 20.4774C117.169 20.2043 117.047 19.9138 116.882 19.6062L116.021 18.0327L114.47 18.9386C114.083 19.164 113.757 19.4241 113.492 19.7145C113.262 19.6712 113.014 19.6494 112.753 19.6494C112.753 19.6494 111.866 19.5497 110.889 19.9051L109.637 18.6092L108.155 17.0315C106.769 15.5537 104.891 15.1158 102.979 15.844C102.249 15.1158 101.11 14.5134 99.3414 14.5134C98.7417 14.5134 98.2156 14.587 97.9072 14.626C97.9072 14.626 95.4734 15.0681 94.1045 16.364L92.4443 15.5752C91.3317 17.3219 89.4283 17.8767 89.4283 17.8767C89.2979 17.3653 89.076 16.8885 88.7589 16.4507L88.8676 15.8353C88.8676 15.818 89.2412 13.7333 90.38 11.9649L92.3617 8.88742L89.5542 9.20392C89.5628 8.9265 89.55 8.59707 89.5107 8.20699L89.2586 5.8144L87.0596 6.80709C86.8162 6.91531 86.6119 7.02369 86.4207 7.12342L85.9862 6.20024L84.978 6.72027C84.878 6.47325 84.7476 6.19156 84.5694 5.86656L83.4091 3.74274L81.7619 5.51538C81.5923 5.69752 81.4489 5.86657 81.3272 6.02695L80.3277 5.03426L79.3195 6.03119C79.1934 5.87081 79.0543 5.70177 78.8848 5.51981L77.2203 3.74274L76.0555 5.87523C75.8774 6.20024 75.7515 6.47766 75.6515 6.72468L74.6475 6.20464L74.2128 7.12784C74.0216 7.02811 73.8173 6.91973 73.574 6.80709L71.3662 5.81882L71.1228 8.22009C71.0838 8.60573 71.0708 8.93074 71.0795 9.20817L68.2676 8.89183L70.2536 11.9691C71.3966 13.7333 71.7617 15.818 71.7617 15.8353L71.866 16.4507C71.5489 16.8929 71.3229 17.3697 71.1968 17.8809C71.1968 17.8809 69.3975 17.114 68.1937 15.5752L66.4988 16.3814C64.5649 15.0812 63.3652 14.5741 61.2791 14.5134C59.5104 14.4657 58.3718 15.1158 57.6417 15.844C55.7251 15.1201 53.8519 15.5579 52.4699 17.0359C52.4699 17.0359 51.5616 18.0198 50.9879 18.6137C50.4143 19.2116 49.5669 19.7059 49.5669 19.7059C49.5669 19.7059 48.3629 19.4371 47.1245 19.7188C46.8594 19.4284 46.529 19.1683 46.1379 18.9386L44.5819 18.0327L43.7257 19.6148C43.5607 19.9182 43.4433 20.2043 43.3651 20.4774C43.1435 20.5119 42.9176 20.5684 42.6916 20.6463L41.2485 21.149L41.5486 22.64C41.6223 22.9998 41.7266 23.3207 41.8699 23.6109C41.7875 23.7713 41.7138 23.9404 41.6528 24.118L41.4095 24.8419L41.7788 25.5137C42.17 26.2201 42.7305 26.749 43.3999 27.0394C41.4485 27.2431 39.6667 27.7112 38.2717 28.0753C37.5545 28.2616 36.9373 28.4264 36.555 28.4826L34.2777 28.8121L34.7948 29.9822L35.2077 30.9142C35.4424 31.4344 35.751 31.9155 36.1073 32.3315C35.9725 32.5222 35.3988 33.4194 35.1425 33.6751L33.9908 34.841L35.0947 36.0545C35.2338 36.202 36.4724 37.498 38.4758 37.5022C39.0234 37.5022 39.5666 37.407 40.1056 37.2163C40.64 38.0485 41.2746 38.8937 41.8525 39.3096C40.7878 40.5578 39.5753 41.6415 37.8501 42.4607L36.4072 43.1456L37.0287 44.7882C37.4328 45.7807 38.2195 46.8686 39.7406 47.2846C39.4146 48.2556 39.2582 49.1745 39.1191 49.9936C38.7931 51.9397 38.654 52.7457 36.9373 53.3483L35.3946 53.8857L35.8378 55.4548C36.1942 56.7333 36.7288 57.5786 37.3067 58.1377L36.2813 59.2646C36.2813 59.2646 38.715 61.0851 41.1009 61.3061C41.1355 61.3105 43.1695 61.4405 44.0821 60.2788C44.4472 61.5963 45.0253 62.8101 45.5511 63.911C46.629 66.1735 47.2026 67.5127 46.4812 68.7349L44.8514 71.4916L48.0545 71.3572C49.4539 71.3007 50.7532 71.2141 51.8789 70.9366C51.8789 70.9975 51.8746 71.0537 51.8702 71.1102L51.6094 73.4766L54.4169 72.8873C54.7125 72.8005 54.9907 72.6835 55.2428 72.5491C56.981 74.5775 59.9362 76.1595 63.9173 76.1595H64.1476L59.5712 78.0318L62.9045 79.7613C65.0993 80.9012 67.5376 81.8549 70.319 82.6652L69.932 83.9961L71.6054 84.4857C72.5702 84.7674 76.0599 85.6907 80.3103 85.6907C84.5607 85.6907 88.0461 84.7674 89.0152 84.4857L90.6841 83.9961L90.2972 82.6696C93.0832 81.8591 95.5213 80.9056 97.7159 79.7658L101.049 78.0363L96.4686 76.1639H96.699C100.68 76.1639 103.631 74.5819 105.369 72.5533C105.621 72.6877 105.9 72.8048 106.195 72.8915L109.002 73.481L108.746 71.1188C108.742 71.0624 108.737 71.0018 108.737 70.9411C109.859 71.2185 111.162 71.3007 112.557 71.3616L115.76 71.4958L114.139 68.7436C113.414 67.5214 113.992 66.1822 115.065 63.9197C115.591 62.8188 116.169 61.605 116.534 60.2875C117.151 60.7555 117.816 61.0373 118.477 61.1848C118.477 61.1848 118.99 61.3365 119.481 61.3493C120.897 61.3927 121.606 60.9896 122.579 60.3785L124.348 59.269L123.314 58.1421C123.892 57.5873 124.426 56.742 124.783 55.4679L125.23 53.8944L123.683 53.3572C121.962 52.7544 121.827 51.9484 121.502 50.0021C121.363 49.1832 121.21 48.2601 120.88 47.2932C122.401 46.873 123.183 45.7849 123.588 44.7968L124.205 43.1499L122.762 42.4649C121.037 41.646 119.824 40.5623 118.755 39.3139C119.337 38.8979 119.972 38.0526 120.511 37.2205C121.045 37.4114 121.589 37.5022 122.14 37.5067C124.144 37.5067 125.387 36.2107 125.522 36.0632L126.625 34.8497L125.474 33.6709Z" fill="white"/>
<path fill-rule="evenodd" clip-rule="evenodd" d="M66.1868 55.03V41.8105C66.1868 40.5796 65.8305 39.3484 65.4044 38.2174H75.6916C76.6346 39.5089 78.3468 40.3756 80.3113 40.3756C82.267 40.3756 83.9792 39.5089 84.9266 38.2174H95.2136C94.7789 39.3529 94.4269 40.5796 94.4269 41.8105V55.03H66.1868ZM80.3069 73.095C78.8684 71.6692 77.8426 71.513 73.9662 71.513C69.3333 71.513 66.1868 68.8041 66.1868 64.4743V55.8058H94.4227V64.4743C94.4227 68.8041 91.2805 71.513 86.6391 71.513C82.7667 71.5088 81.7409 71.6692 80.3069 73.095Z" fill="#FFDD2D"/>
<path d="M67.8247 74.7294V77.369L65.5258 78.2921C67.4683 79.172 69.8805 80.0475 72.7139 80.6933L74.0177 76.4587C71.2365 75.891 69.298 75.2973 67.8247 74.7294Z" fill="white"/>
<path d="M80.3057 78.3052C77.5893 78.3052 75.3035 78.0235 74.3908 77.8155L73.0131 82.2581C75.1775 82.7868 77.711 83.1769 80.3057 83.1769C82.8915 83.1769 85.4252 82.7913 87.5983 82.2581L86.2163 77.8155C85.3035 78.0278 83.0263 78.3052 80.3057 78.3052Z" fill="white"/>
<path d="M92.7879 74.7294C91.3104 75.2973 89.3764 75.8868 86.5948 76.4631L87.9031 80.6977C90.7411 80.0517 93.1443 79.1763 95.087 78.2966L92.7924 77.3733V74.7294H92.7879Z" fill="white"/>
<path d="M63.0088 32.145C66.6072 30.2076 75.4035 25.9428 69.4407 21.344C68.6281 20.72 67.7329 20.1563 66.9808 19.4587C66.051 20.1737 67.3287 21.9508 67.6502 22.601C67.6502 22.601 65.6641 22.8003 65.1904 22.8003C62.1221 22.7873 58.9061 20.9757 60.5359 17.5039C59.3147 17.7554 59.1668 18.9255 58.7932 19.9267C58.0108 19.3979 56.6505 18.2625 55.6033 18.4228C56.4549 21.1402 60.0406 23.5893 62.8218 24.1439C60.01 25.6696 54.7948 26.8052 52.0526 23.5197C50.1272 27.2344 52.8087 28.7859 55.438 30.732C45.4293 35.2874 46.907 40.3974 40.3402 44.4197C41.1919 44.8183 44.9903 44.0166 45.3293 43.9688C43.9038 45.8109 43.2388 46.5911 42.8217 47.4884C42.4218 48.3291 42.2436 49.2784 41.8483 51.3242C41.5395 52.9409 40.9746 54.5531 39.0015 55.6237C39.7752 57.0193 41.4919 55.9271 42.2089 55.7408C42.1132 55.8881 41.8698 57.5698 41.2267 58.3803C44.5991 58.1635 43.0389 51.0727 46.4115 52.7804C47.3632 53.2573 47.6502 54.3755 47.211 55.2899C44.9946 59.8496 50.0316 63.8675 49.7577 67.8637C50.9965 67.855 52.2786 67.8205 53.0868 66.1517C53.5085 66.9838 54.1603 68.1541 54.5254 69.281L55.5336 67.569C56.1551 70.4036 58.8062 73.0215 62.3874 73.2556C60.6794 70.5596 62.7263 66.8798 58.576 62.966C59.0929 62.5498 60.2882 61.748 60.714 61.2019C55.6207 61.8001 50.3054 57.7821 52.7174 55.8752C54.295 54.6312 54.9861 57.2144 57.4198 56.7809L56.4681 55.9618C56.8026 55.6322 57.1851 55.2034 57.5806 54.8782C56.5463 54.7527 55.4162 54.0938 55.4162 54.0938L56.0334 53.0751C50.0664 53.0664 49.9142 48.5156 52.3392 48.3336C53.478 48.2512 54.9513 50.3446 58.6236 49.9067C58.1542 49.3434 57.9675 48.4896 57.7456 47.8611C58.6323 47.7788 59.6755 47.7875 60.5142 47.38C58.7193 47.1503 58.2672 46.5478 56.7722 45.421L58.5063 44.7882C55.99 43.5355 56.1421 41.3554 56.0639 39.0841C57.3807 39.8382 58.9279 41.0087 60.5792 40.4668C60.9704 40.3367 61.2225 40.1548 61.2312 39.7474C58.8757 38.8069 57.3635 35.1877 63.0088 32.145ZM58.7106 32.5004C55.5597 35.8595 56.9243 37.8706 57.5589 38.4903C56.3853 38.2391 54.6341 36.7479 55.0337 35.3047C54.6603 35.7511 54.2778 36.2365 53.8866 36.735C53.1042 37.7753 52.4046 38.7938 51.7831 39.7821C50.827 42.6165 52.5783 45.5423 55.5597 46.8382C52.2481 46.3528 50.7618 43.4142 50.7705 41.5418C49.1885 44.5238 48.4322 47.2456 48.5018 49.5299C48.5322 50.3793 48.6061 51.1724 48.7191 51.9222C49.4798 53.3612 50.701 53.8902 52.8782 54.1544C50.9009 54.2801 49.8534 54.1891 48.9931 53.2876C50.3402 59.0652 56.6418 64.0668 59.2061 68.349C56.6374 65.0204 51.3225 60.0621 49.4624 56.4776C49.3189 57.7734 49.6665 61.0936 51.2832 63.1349C48.9016 60.7989 48.7148 57.262 48.8714 55.1903C48.2672 53.6993 47.8848 52.035 47.8326 50.141C47.7846 48.3985 47.9063 46.886 48.1716 45.5292C46.6677 47.6617 44.4948 48.4851 43.4257 51.7316C43.6343 47.5445 46.7679 47.4797 49.1147 42.3955C50.0229 40.1722 51.344 38.252 52.8045 36.0763C50.9487 36.6831 49.558 37.1164 47.4109 39.4612C48.9364 35.8638 57.75 31.8201 61.7876 27.906C60.5749 28.1619 55.6249 28.2875 53.5693 26.9179C57.2938 27.9234 65.5816 26.7749 68.7107 24.6424C66.5507 27.7413 61.8484 27.9191 56.1248 34.0826C56.8548 33.5016 57.8284 32.9165 58.7106 32.5004Z" fill="white"/>
<path d="M118.76 51.3245C118.364 49.2788 118.19 48.3295 117.79 47.4887C117.378 46.5915 116.708 45.8115 115.279 43.9692C115.618 44.017 119.425 44.819 120.272 44.4202C113.705 40.3979 115.183 35.2877 105.17 30.7325C107.799 28.7864 110.481 27.2347 108.555 23.516C105.813 26.8057 100.598 25.6701 97.7859 24.1402C100.572 23.5852 104.153 21.1409 105.005 18.4189C103.953 18.2584 102.593 19.394 101.81 19.9183C101.437 18.9173 101.293 17.747 100.072 17.4913C101.702 20.9673 98.4812 22.779 95.4087 22.7921C94.9393 22.7921 92.9576 22.5927 92.9576 22.5927C93.2749 21.9425 94.5526 20.1657 93.6181 19.4503C92.8663 20.1526 91.9798 20.7116 91.1627 21.3358C85.1956 25.9345 94.0006 30.2037 97.599 32.1367C103.236 35.1794 101.736 38.7986 99.3766 39.7259C99.3853 40.1334 99.6374 40.3156 100.033 40.4456C101.675 40.9917 103.232 39.8215 104.54 39.063C104.466 41.3341 104.622 43.5185 102.106 44.7669L103.836 45.3996C102.341 46.5265 101.893 47.1291 100.098 47.3587C100.932 47.7662 101.984 47.7575 102.866 47.8399C102.64 48.4683 102.445 49.3222 101.984 49.8856C105.661 50.3189 107.139 48.2299 108.268 48.3121C110.685 48.4943 110.541 53.0452 104.57 53.0538L105.187 54.0724C105.187 54.0724 104.057 54.7313 103.018 54.857C103.414 55.1777 103.801 55.6111 104.135 55.9405L103.184 56.7598C105.613 57.1931 106.309 54.61 107.886 55.8539C110.298 57.761 104.987 61.7787 99.8895 61.1807C100.32 61.7268 101.515 62.533 102.032 62.9491C97.8772 66.8586 99.9199 70.5426 98.2204 73.2428C101.793 73.0045 104.444 70.3866 105.074 67.552L106.082 69.264C106.443 68.1371 107.104 66.967 107.517 66.1347C108.321 67.8035 109.611 67.8382 110.854 67.8468C110.572 63.8506 115.605 59.8328 113.397 55.2731C112.954 54.3629 113.24 53.2447 114.192 52.7636C117.573 51.0557 116.004 58.1468 119.381 58.3634C118.734 57.5528 118.495 55.8713 118.403 55.7239C119.116 55.9104 120.828 57.0024 121.602 55.6025C119.642 54.5535 119.077 52.9412 118.76 51.3245ZM112.445 45.5253C112.71 46.8863 112.845 48.3946 112.784 50.137C112.727 52.031 112.349 53.6954 111.745 55.1863C111.897 57.2583 111.715 60.7948 109.333 63.1312C110.946 61.0854 111.298 57.7697 111.154 56.4737C109.285 60.058 103.975 65.0165 101.402 68.3453C103.97 64.0629 110.272 59.0568 111.623 53.2837C110.754 54.1807 109.716 54.2763 107.734 54.1506C109.907 53.8861 111.128 53.3573 111.889 51.9184C112.002 51.1729 112.076 50.3754 112.106 49.526C112.18 47.2417 111.419 44.5197 109.837 41.5378C109.85 43.4102 108.364 46.3487 105.048 46.8343C108.021 45.534 109.776 42.6084 108.825 39.7782C108.208 38.7899 107.512 37.767 106.721 36.7311C106.33 36.2326 105.948 35.7472 105.57 35.3008C105.969 36.744 104.218 38.235 103.044 38.4864C103.684 37.8666 105.044 35.8554 101.897 32.4965C102.779 32.9126 103.753 33.4977 104.487 34.0698C98.7637 27.9065 94.0658 27.7332 91.8971 24.6299C95.0305 26.7625 103.318 27.9152 107.039 26.9052C104.987 28.2749 100.033 28.1491 98.8202 27.8934C102.858 31.8073 111.68 35.8514 113.201 39.4488C111.054 37.1038 109.659 36.6705 107.812 36.0637C109.277 38.2436 110.589 40.1596 111.498 42.3829C113.849 47.4669 116.987 47.5278 117.191 51.719C116.122 48.4812 113.953 47.6578 112.445 45.5253Z" fill="white"/>
<path d="M84.9213 38.2129C83.978 39.5044 82.2615 40.3712 80.3101 40.3712C79.8537 40.3712 79.4148 40.3193 78.9976 40.2412C79.115 40.7744 79.3888 41.3249 79.958 41.7972C79.7278 43.3445 80.397 44.7922 82.0616 45.1694C82.2396 45.9583 82.7266 46.552 83.5523 46.8336L82.3917 48.1687C81.9442 48.6801 81.3618 48.8448 80.8925 48.7842L75.7122 48.199C75.938 47.6269 75.3383 46.9637 73.6955 47.2454L75.7295 41.5675L74.4907 38.9367L72.1398 40.9391L71.9658 46.8943L70.9532 46.4047C69.6494 45.8411 69.2626 48.2119 70.5057 48.2206L71.0054 48.225C70.9706 48.4676 71.0488 48.7364 71.2444 48.8232C71.0097 48.9184 70.9401 49.3562 71.2314 49.5124C70.9358 49.6553 70.8924 50.1061 71.1314 50.3012C70.875 50.7388 70.8271 51.6881 71.7356 51.9266C72.483 52.1215 72.9524 51.3238 73.1046 50.8602L81.1663 53.3481C82.3006 53.6733 83.1176 53.4911 84.0651 52.6634L86.1687 50.8298C85.9034 52.0305 86.3335 53.1096 87.2508 53.4694C87.2508 53.4694 87.1072 54.5703 87.1637 55.0256L89.9842 55.0298H94.4257V41.8103C94.4257 40.5795 94.778 39.3484 95.2126 38.2129H89.9842H84.9213Z" fill="white"/>
<path d="M72.8488 60.4566L73.0053 60.6518C73.2225 60.9206 73.3529 60.8554 73.6006 60.7125L73.9657 60.5175C74.1961 60.344 75.6955 60.9163 75.7779 59.6724C75.9432 60.5997 74.8349 62.5544 75.5042 63.6468L76.4038 65.1162L73.4659 65.1595C73.1444 65.1595 72.9749 65.3545 72.888 65.5279L72.1186 67.1185C71.9186 67.5389 71.9317 67.9724 72.1838 68.2628L72.7054 68.8478C72.7054 68.8478 73.1314 68.4882 73.2702 68.0158L73.0399 67.7773C72.8488 67.5952 72.8488 67.4219 72.953 67.1965L73.4267 66.217C73.6093 65.8312 73.7962 65.7489 74.2135 65.8486L76.5907 66.3599C76.7645 66.4035 77.0471 66.4857 77.2164 66.1953C77.5076 65.6794 78.0205 65.6449 78.5421 65.7273C79.8457 65.9222 82.8577 66.2344 83.9311 64.9818C85.1914 66.6505 87.6556 66.6505 87.4948 67.5258L86.9732 70.3951H87.7555L88.2335 67.461C88.2856 67.1185 88.4988 66.6505 88.1293 66.3861C87.9772 66.2691 87.9077 66.2084 87.5641 65.6189C87.1166 64.8387 87.1385 63.6684 86.708 62.6585C87.1166 62.1774 87.5599 62.0128 87.9466 62.1038C88.8159 62.3161 89.0506 63.8115 90.2848 65.0292C90.1458 64.4876 90.0851 63.8938 89.7937 63.378C89.7937 63.378 90.6498 64.0412 90.8715 64.8169C91.0106 65.3025 91.154 65.6578 91.593 65.8833C91.8842 65.9872 92.2318 65.8486 92.5797 65.4324C92.5797 65.4324 91.7668 64.2797 91.1714 63.5255C90.3544 62.4894 89.2634 61.4493 87.7773 61.5706C87.3078 61.6097 86.8558 61.822 86.4257 62.0777C84.735 61.1329 83.4226 62.1341 82.901 62.1341L79.7372 61.9476C79.1157 61.9088 78.6245 61.1892 78.6245 61.1892C78.5463 58.5194 76.3951 57.4573 75.652 57.4573C75.652 57.4573 75.7216 56.9762 75.5259 56.8073L74.8653 57.6351L73.0312 56.9675L74.4699 58.1423L72.9095 59.9497C72.7489 60.1274 72.7706 60.3614 72.8488 60.4566Z" fill="white"/>
<path d="M70.776 64.2055C70.3328 64.5478 70.3545 65.0246 70.6197 65.5578L70.8848 66.0519L71.5757 65.5274L71.4193 65.1893C71.3063 64.951 71.3108 64.7082 71.5062 64.5565L72.4972 63.811C72.7754 63.6073 72.8622 63.5857 73.1579 63.6289L75.248 64.0668C75.248 64.0668 74.9309 63.6073 74.8266 63.1392L72.8578 62.879C72.5796 62.8445 72.4103 62.9615 72.1669 63.1478L70.776 64.2055Z" fill="white"/>
<path d="M84.1436 70.395H84.9347L86.2035 67.2786C86.247 67.1703 86.3078 67.1226 86.3557 67.0316C85.7863 66.8062 85.4516 66.6502 84.978 66.3771C85.2953 66.8019 85.5429 66.984 85.4125 67.3783L84.1436 70.395Z" fill="white"/>
<path d="M84.8169 28.2444L86.2815 19.8491L80.7317 21.7302V30.3856L84.8169 28.2444ZM81.6703 22.5796L85.3513 21.2275C85.3513 21.2275 84.6343 21.8081 83.7781 22.3931C83.0176 22.9176 81.6703 23.4768 81.6703 23.4768V22.5796ZM81.6703 24.6124L85.0384 23.4117C85.0384 23.4117 84.6343 23.8367 83.7824 24.4217C83.0219 24.9418 81.6747 25.5008 81.6747 25.5008V24.6124H81.6703ZM81.6703 26.7708L84.6343 25.6352C84.6343 25.6352 84.6343 25.995 83.7781 26.5758C83.0176 27.1003 81.6703 27.6593 81.6703 27.6593V26.7708Z" fill="white"/>
<path d="M74.9432 35.6688L75.0649 35.8639H76.2079L76.2209 36.0633C76.234 36.2542 76.2775 36.4492 76.3425 36.6484C76.5209 37.1902 76.8728 37.7581 77.4378 38.2174C78.094 38.7464 79.0415 39.1278 80.3018 39.1278C83.0355 39.1278 84.2697 37.3638 84.3871 36.0633L84.3958 35.8639H85.543L85.6647 35.6688C86.7427 33.9873 88.0594 32.1192 89.5891 31.8505L85.417 29.4361L80.3018 32.2102L75.1821 29.4361L71.0143 31.8505C72.5443 32.1149 73.8611 33.9873 74.9432 35.6688Z" fill="white"/>
<path d="M79.872 30.3856V21.7302L74.3309 19.8491L75.7867 28.2444L79.872 30.3856ZM78.9375 27.668C78.9375 27.668 77.5902 27.1047 76.8298 26.5845C75.9737 26.0037 75.9737 25.6396 75.9737 25.6396L78.9418 26.7752V27.668H78.9375ZM78.9375 22.5796V23.4768C78.9375 23.4768 77.5902 22.9176 76.8298 22.3931C75.9693 21.8081 75.2478 21.2275 75.2478 21.2275L78.9375 22.5796ZM78.9375 24.6124V25.5052C78.9375 25.5052 77.5902 24.9462 76.8298 24.426C75.9693 23.8409 75.5695 23.4161 75.5695 23.4161L78.9375 24.6124Z" fill="white"/>
<path d="M80.3055 16.1474C77.1372 16.1474 74.76 17.1833 74.2427 18.3971L80.3055 20.7851L86.3595 18.3971C85.8466 17.1833 83.4736 16.1474 80.3055 16.1474Z" fill="white"/>
<path d="M80.3062 12.6797C82.6401 12.6797 84.9782 13.3863 86.5513 14.3008C86.8079 13.4556 87.0816 12.8532 87.4554 12.1641L86.0214 12.3851L84.8608 9.91453L82.6923 11.0632L80.3062 8.70966L77.9159 11.0632L75.7517 9.91453L74.5827 12.3851L73.1483 12.1641C73.5221 12.8532 73.7916 13.4556 74.0568 14.3008C75.6344 13.3863 77.9638 12.6797 80.3062 12.6797Z" fill="white"/>
<path d="M119.854 31.7071C120.636 31.6076 121.267 31.3475 122.036 30.7752C120.38 30.3376 116.912 29.085 113.952 29.6484C112.975 29.7784 112.431 30.1728 112.779 30.3982C114.37 31.4514 116.334 33.8915 117.764 36.7394C119.02 35.1833 118.494 33.1418 118.229 32.5567C120.732 34.0606 121.388 34.7932 122.549 34.507C121.927 33.5579 121.054 32.7041 119.854 31.7071Z" fill="white"/>
<path d="M42.8479 36.7353C44.2777 33.8878 46.2421 31.4477 47.837 30.3943C48.1934 30.169 47.6414 29.7745 46.6723 29.6445C43.7083 29.0855 40.2316 30.3337 38.5759 30.7714C39.3536 31.3437 39.9708 31.6037 40.7619 31.7034C39.5581 32.7046 38.6844 33.5542 38.063 34.5033C39.2319 34.7893 39.8839 34.0569 42.3828 32.5528C42.1265 33.1423 41.5962 35.1794 42.8479 36.7353Z" fill="white"/>
<path fill-rule="evenodd" clip-rule="evenodd" d="M60.2012 63.1655C61.3529 62.2552 62.3089 61.7999 62.2612 59.5939C60.5314 60.4781 55.6249 60.4304 53.5735 57.6132C52.9955 56.8114 53.6126 56.4083 54.1731 57.041C55.577 58.6274 58.1759 57.908 59.1233 57.4527C58.9713 56.9068 58.5497 56.1959 58.1977 55.8925C58.5541 55.5458 59.558 55.0256 59.7622 54.1328C59.2276 53.8424 57.1458 53.6343 57.1458 53.6343C57.4807 53.3136 57.8977 52.8672 57.6458 51.6753C55.5205 52.3255 52.8912 51.4412 52.2958 50.6568C51.7091 49.8851 52.309 49.1614 52.8043 49.6728C53.8647 50.7823 59.0885 52.0523 61.0313 50.1236C60.3099 49.9242 59.5145 49.2827 59.371 48.8839C61.1704 48.702 62.6045 47.6444 62.7219 46.3268C61.7265 46.3268 59.8491 46.2531 59.2058 45.7762C60.0663 45.46 60.614 45.1478 60.8878 44.1856C57.598 43.9864 57.3372 41.5504 57.3198 41.1473C59.4623 42.3782 63.2346 41.8321 62.2568 38.7981C60.4749 38.7028 58.6801 35.8292 63.578 33.1896C68.0327 30.7842 73.0957 28.1922 72.648 23.9231C72.3569 21.1924 67.8501 19.3287 67.2765 17.9461C65.3946 18.8387 65.0165 19.8748 65.8639 21.6128C65.8639 21.6128 61.67 22.0289 61.3398 19.4544C61.1964 18.3015 61.9699 17.222 62.8001 16.3944C62.3307 16.3944 59.1711 15.5492 58.2192 18.115C56.4505 16.9102 54.9339 16.9535 53.743 18.2276C55.6464 19.3546 56.8243 23.2208 59.9707 24.3606C57.7325 25.5699 54.1124 25.0629 52.0002 21.344C50.0011 24.3477 48.8495 27.321 53.139 30.498C45.3378 34.039 45.3945 40.8093 38.6059 44.0338C39.2925 45.8759 40.7442 45.8759 42.5957 45.59C39.6619 49.3911 42.161 53.3699 37.5151 54.9953C37.9497 56.547 38.8232 57.7865 40.5356 57.3314C40.0488 58.0899 39.7273 58.0725 38.971 58.9047C41.509 60.4998 44.5209 59.3469 45.2031 54.228C45.3248 53.3136 46.5851 53.8857 46.1506 54.783C43.256 60.7513 50.5749 65.2415 47.9847 69.6192C50.2661 69.5236 52.0089 69.346 52.9564 68.5789C53.4215 69.4977 53.7039 70.4079 53.5997 71.3051C54.86 71.0494 55.3206 70.3082 55.4075 69.4501C56.2334 71.8556 59.1885 74.4257 63.917 74.4257C61.4094 70.8545 63.7432 67.2352 60.2012 63.1655ZM55.5334 67.5646L54.5254 69.2766C54.1644 68.1497 53.5083 66.9795 53.0868 66.1475C52.2742 67.816 50.992 67.8507 49.7577 67.8594C50.0315 63.8632 44.9946 59.8454 47.211 55.2857C47.6543 54.3755 47.3631 53.2573 46.4112 52.7762C43.0345 51.0685 44.5989 58.1593 41.2267 58.376C41.8698 57.5654 42.113 55.8838 42.2088 55.7364C41.4916 55.9228 39.7749 57.015 39.0015 55.6195C40.9746 54.5489 41.5395 52.9366 41.8481 51.3199C42.2391 49.274 42.4218 48.3249 42.8172 47.484C43.2344 46.5869 43.8993 45.8067 45.3248 43.9646C44.9859 44.0122 41.1919 44.8142 40.3357 44.4154C46.9026 40.3932 45.4249 35.283 55.4336 30.7277C52.8086 28.7817 50.127 27.23 52.0482 23.5156C54.7903 26.8009 60.0013 25.6653 62.8175 24.1396C60.0361 23.5849 56.4505 21.1403 55.6031 18.4185C56.6504 18.2581 58.0107 19.3937 58.7888 19.9224C59.1668 18.9168 59.3147 17.751 60.5359 17.4995C58.9061 20.9712 62.1221 22.7831 65.1904 22.7962C65.6683 22.7962 67.6502 22.5966 67.6502 22.5966C67.3328 21.9466 66.0508 20.1694 66.9808 19.4544C67.7327 20.1565 68.6281 20.7155 69.4407 21.3397C75.4077 25.9426 66.6071 30.2076 63.0086 32.1452C57.3631 35.1877 58.8757 38.8112 61.2312 39.7344C61.2225 40.1417 60.9704 40.3238 60.5792 40.4539C58.9279 41 57.3805 39.8253 56.0637 39.0711C56.1419 41.3425 55.9856 43.5269 58.5062 44.7751L56.7721 45.4035C58.2628 46.5348 58.7192 47.1328 60.514 47.3669C59.6753 47.7744 58.6365 47.7657 57.7456 47.8482C57.9718 48.4765 58.1542 49.3305 58.6236 49.8938C54.9513 50.3274 53.478 48.2381 52.3392 48.3206C49.9142 48.5025 50.0663 53.0537 56.0334 53.0623L55.4162 54.0807C55.4162 54.0807 56.5461 54.7396 57.585 54.8651C57.1894 55.186 56.8069 55.6195 56.4723 55.9487L57.4241 56.768C54.9861 57.2013 54.2993 54.6181 52.7173 55.8621C50.3054 57.7692 55.6205 61.7872 60.7139 61.1888C60.2882 61.7351 59.0885 62.5413 58.5758 62.9573C62.7262 66.8669 60.6792 70.551 62.3872 73.2513C58.8062 73.0171 56.1551 70.3948 55.5334 67.5646Z" fill="black"/>
<path fill-rule="evenodd" clip-rule="evenodd" d="M48.9847 53.2879C49.8495 54.185 50.8925 54.2804 52.8698 54.1547C50.6927 53.8903 49.4715 53.3614 48.7109 51.9227C48.6022 51.1772 48.5285 50.3795 48.4979 49.53C48.4284 47.2458 49.1846 44.524 50.7666 41.542C50.7579 43.41 52.2399 46.3485 55.5558 46.8383C52.5746 45.5382 50.8231 42.6124 51.779 39.7822C52.4006 38.794 53.1004 37.771 53.8826 36.7353C54.2737 36.2369 54.6562 35.7513 55.0299 35.3049C54.63 36.7482 56.3815 38.2392 57.555 38.4905C56.9204 37.8707 55.5558 35.8641 58.7067 32.5052C57.8287 32.9211 56.8552 33.5062 56.1165 34.0783C61.8359 27.915 66.5424 27.7417 68.7025 24.6384C65.5733 26.771 57.2856 27.9237 53.5611 26.9137C55.6166 28.2834 60.5668 28.1576 61.7792 27.9019C57.7463 31.8158 48.9325 35.8599 47.4028 39.4573C49.5496 37.1081 50.9403 36.679 52.8004 36.0764C51.336 38.2566 50.0192 40.1723 49.1106 42.3959C46.7638 47.4754 43.6261 47.5406 43.4218 51.7275C44.4911 48.4811 46.664 47.6577 48.1677 45.5251C47.9026 46.8861 47.7765 48.3945 47.8242 50.1369C47.8765 52.0309 48.259 53.6952 48.863 55.1862C48.7109 57.2581 48.8934 60.7947 51.275 63.131C49.6584 61.0895 49.3105 57.7695 49.4541 56.4735C51.3185 60.0579 56.6336 65.0163 59.2022 68.3451C56.6336 64.0672 50.3363 59.0653 48.9847 53.2879Z" fill="black"/>
<path fill-rule="evenodd" clip-rule="evenodd" d="M107.816 36.0761C109.663 36.6829 111.058 37.1121 113.205 39.4612C111.684 35.8638 102.857 31.8199 98.8243 27.9062C100.037 28.1575 104.991 28.2876 107.043 26.9179C103.323 27.9278 95.0347 26.7749 91.9011 24.6424C94.0656 27.7458 98.768 27.9191 104.491 34.0824C103.757 33.5103 102.784 32.9252 101.901 32.5091C105.048 35.8682 103.688 37.8792 103.049 38.499C104.222 38.2477 105.973 36.7568 105.574 35.3132C105.952 35.7598 106.334 36.2452 106.725 36.7437C107.512 37.784 108.207 38.8023 108.829 39.7906C109.785 42.6254 108.029 45.5508 105.056 46.8468C108.373 46.3615 109.859 43.4183 109.842 41.5504C111.428 44.5323 112.184 47.2543 112.114 49.5384C112.084 50.3878 112.01 51.1811 111.897 51.931C111.132 53.3697 109.911 53.8987 107.738 54.163C109.72 54.2843 110.758 54.1935 111.628 53.2963C110.276 59.0739 103.979 64.0755 101.406 68.3577C103.979 65.0291 109.285 60.0708 111.158 56.4861C111.302 57.7821 110.954 61.1021 109.337 63.1437C111.719 60.8076 111.901 57.2707 111.749 55.1989C112.349 53.708 112.727 52.0436 112.788 50.1495C112.844 48.407 112.71 46.8945 112.449 45.5379C113.957 47.6702 116.126 48.494 117.199 51.7403C116.995 47.5489 113.857 47.484 111.506 42.4042C110.593 40.1676 109.281 38.252 107.816 36.0761Z" fill="black"/>
<path fill-rule="evenodd" clip-rule="evenodd" d="M118.021 45.5809C119.868 45.8715 121.32 45.8715 122.01 44.0294C115.222 40.8047 115.279 34.0388 107.477 30.4936C111.767 27.3208 110.611 24.3431 108.616 21.3396C106.508 25.0583 102.875 25.5655 100.646 24.3562C103.783 23.2162 104.97 19.3501 106.873 18.2232C105.682 16.9489 104.161 16.9056 102.393 18.1104C101.437 15.5445 98.2814 16.3898 97.8076 16.3898C98.6333 17.2132 99.4157 18.2926 99.2679 19.4498C98.9421 22.0245 94.7482 21.6082 94.7482 21.6082C95.5956 19.8702 95.2174 18.8343 93.3356 17.9413C92.762 19.3241 88.2597 21.1878 87.964 23.9183C87.5121 28.1876 92.5836 30.7794 97.0341 33.1852C101.932 35.8246 100.137 38.7026 98.3595 38.7937C97.373 41.8277 101.145 42.3738 103.292 41.1427C103.283 41.5459 103.01 43.9816 99.7198 44.1812C99.998 45.1434 100.541 45.4552 101.402 45.7718C100.759 46.2529 98.8811 46.3222 97.8902 46.3222C98.0074 47.6398 99.4461 48.7017 101.245 48.8795C101.102 49.2783 100.302 49.9198 99.585 50.119C101.528 52.0477 106.752 50.7779 107.812 49.6684C108.299 49.157 108.894 49.8807 108.312 50.6522C107.712 51.4409 105.087 52.3252 102.958 51.6705C102.714 52.8584 103.123 53.309 103.457 53.6299C103.457 53.6299 101.376 53.8378 100.837 54.1283C101.041 55.0211 102.049 55.5368 102.401 55.8879C102.045 56.1913 101.623 56.902 101.471 57.4483C102.427 57.9076 105.026 58.6229 106.421 57.0364C106.986 56.408 107.603 56.8068 107.025 57.6087C104.974 60.4258 100.068 60.4692 98.3336 59.5893C98.2856 61.7955 99.2418 62.2508 100.394 63.1608C96.8472 67.2308 99.1897 70.8499 96.6819 74.4126C101.406 74.4126 104.361 71.8424 105.187 69.4368C105.283 70.2907 105.735 71.0362 106.991 71.2919C106.895 70.3946 107.173 69.4845 107.634 68.5656C108.59 69.3329 110.333 69.5105 112.614 69.6058C110.028 65.2283 117.347 60.738 114.444 54.7697C114.014 53.8725 115.274 53.3003 115.396 54.2149C116.074 59.3336 119.09 60.4866 121.632 58.8917C120.867 58.0594 120.55 58.0768 120.063 57.3182C121.776 57.7733 122.645 56.5337 123.084 54.982C118.46 53.3611 120.959 49.3822 118.021 45.5809ZM118.412 55.7406C118.503 55.8879 118.742 57.5696 119.39 58.3803C116.013 58.1633 117.577 51.0726 114.201 52.7803C113.249 53.2571 112.967 54.3754 113.405 55.2898C115.613 59.8495 110.58 63.8675 110.863 67.8635C109.62 67.855 108.329 67.8201 107.525 66.1514C107.112 66.9838 106.447 68.1539 106.087 69.2808L105.078 67.5689C104.453 70.4033 101.801 73.0213 98.2291 73.2597C99.9286 70.5637 97.8857 66.8795 102.041 62.9658C101.519 62.5497 100.324 61.7436 99.8938 61.1973C104.991 61.7955 110.302 57.7778 107.89 55.8706C106.313 54.6266 105.617 57.21 103.188 56.7763L104.14 55.9573C103.805 55.628 103.418 55.1988 103.023 54.8738C104.062 54.7481 105.191 54.0892 105.191 54.0892L104.574 53.0707C110.541 53.062 110.685 48.511 108.273 48.329C107.138 48.2466 105.661 50.34 101.988 49.9024C102.453 49.3388 102.645 48.485 102.871 47.8565C101.984 47.7742 100.937 47.7829 100.102 47.3754C101.897 47.1457 102.349 46.5433 103.84 45.4164L102.11 44.7836C104.626 43.5309 104.466 41.3508 104.544 39.0798C103.231 39.834 101.675 41.0041 100.037 40.4624C99.6459 40.3323 99.3896 40.1502 99.3809 39.7428C101.741 38.8153 103.245 35.1962 97.6034 32.1535C94.0093 30.2161 85.2042 25.9511 91.167 21.3525C91.984 20.7285 92.8705 20.165 93.6181 19.4672C94.5524 20.1822 93.2749 21.9593 92.9574 22.6095C92.9574 22.6095 94.9393 22.8088 95.4085 22.8088C98.4812 22.7958 101.702 20.9842 100.072 17.508C101.293 17.7595 101.437 18.934 101.81 19.9352C102.593 19.4064 103.949 18.2753 105.005 18.4355C104.148 21.1533 100.572 23.6021 97.7859 24.1567C100.598 25.6825 105.813 26.8181 108.555 23.5326C110.476 27.2471 107.799 28.7988 105.17 30.7449C115.183 35.2959 113.701 40.4103 120.272 44.4326C119.424 44.8312 115.618 44.0294 115.279 43.9816C116.713 45.8237 117.382 46.6039 117.79 47.5011C118.19 48.3419 118.364 49.2869 118.76 51.3369C119.073 52.9536 119.642 54.5659 121.606 55.6367C120.837 57.0193 119.125 55.9269 118.412 55.7406Z" fill="black"/>
<path fill-rule="evenodd" clip-rule="evenodd" d="M70.7315 66.9278L72.1614 65.7186L71.944 65.2851C71.7876 64.9731 71.8702 64.9557 72.0355 64.8344L72.7917 64.2752C72.9653 64.1322 73.148 64.1495 73.361 64.2016L75.625 64.7303H73.2348C72.6828 64.7649 72.5222 64.9773 72.3222 65.3848L72.1572 65.7186L71.5444 66.9755C71.3357 67.4089 71.227 67.9853 71.7747 68.6354L72.2092 69.1512L71.3313 70.924H72.0701L72.6786 69.693C72.7264 69.6496 73.626 68.8305 73.8172 67.9853C73.5564 67.773 73.3739 67.6255 73.5175 67.3308L73.7911 66.7414C73.8825 66.5464 73.9128 66.4685 74.1736 66.516L76.5465 67.0275C76.8421 67.1097 77.2767 67.2398 77.5938 66.763C77.9199 66.2689 77.9633 66.321 78.7194 66.3947L79.9319 66.5246C81.5878 66.6808 83.2436 66.2689 83.8869 65.7575C84.1128 66.2689 84.5605 66.6635 84.7691 67.0622C84.8473 67.2096 84.7169 67.4176 84.617 67.6776L83.2567 70.9196H85.3557L86.5423 67.9637C86.651 67.682 86.8116 67.4566 86.9333 67.344L86.2511 70.924H88.2893L88.8282 67.3829C88.9456 66.594 88.8761 66.3428 88.4981 66.0175C87.6505 65.3025 87.6677 63.8028 87.3941 62.8925C87.5375 62.8103 87.707 62.7667 87.907 62.7929C88.3503 62.8319 88.6848 63.9632 89.2064 64.6914C90.2492 66.1519 91.6705 67.7643 93.3003 65.493C93.1438 65.2332 92.9743 64.999 92.7744 64.7735L92.3182 64.2405C92.053 63.9459 90.7927 62.5068 90.2666 61.9911C89.0716 60.7904 87.2376 60.9726 86.5075 61.5577C84.8515 60.6907 83.1046 61.6011 82.6918 61.5664L79.8408 61.3928C79.7104 61.3841 79.5149 61.3409 79.3758 61.1199L79.906 60.9466C79.4106 58.8877 78.1633 57.1669 75.986 56.868C75.986 56.868 75.8599 56.2178 75.5252 56.0921L74.8733 56.8549C74.6907 56.881 74.4908 56.9373 74.3256 57.0067L71.5444 55.975L73.6305 58.0773C73.6305 58.0773 72.5482 59.6072 72.2396 59.9192C72.0355 60.2054 72.0529 60.4263 72.2831 60.6994L72.6873 61.2283C72.896 61.5014 73.1263 61.4927 73.4608 61.3236L73.9172 61.0852C74.1172 60.9204 74.7863 61.2457 75.0732 60.9855C74.8906 61.5837 74.7994 62.1601 74.7561 62.6153L72.8829 62.3898C72.4743 62.3334 72.2876 62.3898 72.0397 62.5849L70.4405 63.8115C69.9189 64.2103 69.7581 64.8993 70.0798 65.5713L70.7315 66.9278ZM86.2031 67.2788L84.9343 70.3996H84.1432L85.4124 67.3785C85.5428 66.9884 85.295 66.8064 84.9777 66.3816C85.4472 66.6461 85.7862 66.8195 86.3554 67.0362C86.3076 67.1228 86.2467 67.1704 86.2031 67.2788ZM73.965 60.5216L73.6043 60.7125C73.3523 60.8556 73.2261 60.9204 73.0088 60.6518L72.8525 60.4524C72.7743 60.3571 72.7482 60.1274 72.909 59.9452L74.4647 58.138L73.0307 56.9633L74.8559 57.6351L75.5252 56.8029C75.7208 56.9677 75.6511 57.4487 75.6511 57.4487C76.39 57.4487 78.5414 58.515 78.6238 61.1849C78.6238 61.1849 79.1106 61.9 79.732 61.9391L82.9003 62.1296C83.4262 62.1296 84.7387 61.133 86.425 62.0735C86.8509 61.8176 87.3071 61.614 87.7766 61.5619C89.2627 61.4536 90.3581 62.4852 91.1707 63.5253C91.7661 64.2795 92.5833 65.4324 92.5833 65.4324C92.2312 65.8486 91.8878 65.9872 91.5967 65.8831C91.1578 65.6578 91.0142 65.3067 90.8751 64.8171C90.6536 64.0411 89.7974 63.378 89.7974 63.378C90.0886 63.8981 90.1494 64.4877 90.2885 65.0294C89.0499 63.8071 88.8152 62.3161 87.9504 62.1082C87.5679 62.0126 87.1204 62.1774 86.7073 62.6541C87.142 63.664 87.1204 64.8344 87.5679 65.6187C87.907 66.2039 87.9808 66.2558 88.133 66.386C88.4981 66.6461 88.2936 67.1184 88.2373 67.461L87.7679 70.3951H86.9768L87.4984 67.5258C87.6592 66.6504 85.1951 66.6504 83.9346 64.9818C82.8613 66.2342 79.8495 65.9222 78.5457 65.7273C78.0198 65.6492 77.5069 65.6839 77.22 66.1997C77.0507 66.4899 76.7682 66.4033 76.5945 66.3601L74.2171 65.8486C73.7998 65.7531 73.6173 65.8356 73.4347 66.217L72.9611 67.1966C72.8568 67.4263 72.8612 67.5954 73.0522 67.7817L73.2783 68.02C73.1437 68.488 72.7134 68.8478 72.7134 68.8478L72.1961 68.267C71.944 67.9722 71.9312 67.5476 72.131 67.1315L72.9003 65.5277C72.9914 65.3503 73.1567 65.1594 73.4782 65.1594L76.4161 65.116L75.5165 63.6553C74.8472 62.5589 75.9599 60.6041 75.7902 59.6809C75.6991 60.9161 74.1997 60.3527 73.965 60.5216ZM70.775 64.2058L72.1659 63.1482C72.4135 62.9619 72.5786 62.8406 72.8612 62.8751L74.8255 63.1352C74.9341 63.6034 75.2471 64.0628 75.2471 64.0628L73.1567 63.625C72.8612 63.5905 72.7743 63.6034 72.4961 63.8028L71.5052 64.5483C71.3097 64.7 71.301 64.9426 71.414 65.1812L71.5746 65.5234L70.8837 66.0435L70.6185 65.5495C70.349 65.025 70.3319 64.5439 70.775 64.2058Z" fill="black"/>
<path fill-rule="evenodd" clip-rule="evenodd" d="M76.8339 26.5803C77.5945 27.1047 78.9418 27.6638 78.9418 27.6638V26.7708L75.9734 25.6396C75.9734 25.6396 75.9734 26.0039 76.8339 26.5803Z" fill="black"/>
<path fill-rule="evenodd" clip-rule="evenodd" d="M78.9369 25.5049V24.6122L75.5689 23.4115C75.5689 23.4115 75.9688 23.8363 76.8293 24.4214C77.5897 24.9416 78.9369 25.5049 78.9369 25.5049Z" fill="black"/>
<path fill-rule="evenodd" clip-rule="evenodd" d="M78.9377 23.4767V22.5796L75.2478 21.2273C75.2478 21.2273 75.9693 21.8081 76.8298 22.3931C77.5904 22.9176 78.9377 23.4767 78.9377 23.4767Z" fill="black"/>
<path fill-rule="evenodd" clip-rule="evenodd" d="M89.302 35.6688H93.0743C92.9178 35.1225 92.331 34.5722 91.2315 34.5722C90.1887 34.5722 89.5628 35.1703 89.302 35.6688Z" fill="black"/>
<path fill-rule="evenodd" clip-rule="evenodd" d="M85.3571 21.2273L81.6761 22.5796V23.4767C81.6761 23.4767 83.0232 22.9176 83.7839 22.3931C84.6401 21.8081 85.3571 21.2273 85.3571 21.2273Z" fill="black"/>
<path fill-rule="evenodd" clip-rule="evenodd" d="M84.6401 25.6396L81.6761 26.7752V27.668C81.6761 27.668 83.0232 27.1047 83.7839 26.5845C84.6401 26.0039 84.6401 25.6396 84.6401 25.6396Z" fill="black"/>
<path fill-rule="evenodd" clip-rule="evenodd" d="M85.0383 23.4115L81.6703 24.6122V25.5049C81.6703 25.5049 83.0217 24.9459 83.778 24.4258C84.6385 23.8363 85.0383 23.4115 85.0383 23.4115Z" fill="black"/>
<path fill-rule="evenodd" clip-rule="evenodd" d="M69.3719 34.5722C68.2724 34.5722 67.6857 35.1225 67.5292 35.6688H71.306C71.0365 35.1703 70.4193 34.5722 69.3719 34.5722Z" fill="black"/>
<path fill-rule="evenodd" clip-rule="evenodd" d="M87.7988 18.8171C87.7988 16.7022 84.235 14.8081 80.3019 14.8081C76.3688 14.8081 72.8052 16.7022 72.8052 18.8171L72.8877 19.3374L74.4521 28.3223L67.0206 32.6435C66.2297 33.1074 65.2387 34.3815 65.1128 35.6646H66.4686C66.6946 34.3815 67.7072 32.9599 69.6065 33.0467C71.3232 33.1375 72.34 34.1778 73.3483 35.6646L73.6091 36.0547L73.9829 36.6397H63.0527C63.8567 38.2477 64.6173 39.9554 64.6173 41.8062V64.47C64.6173 70.2997 69.1068 73.078 73.9698 73.078C77.7249 73.078 78.2331 72.9089 80.3064 74.9762C82.3706 72.9089 82.8792 73.078 86.6426 73.078C91.5015 73.078 95.9953 70.2997 95.9953 64.47V41.8106C95.9953 39.9599 96.7558 38.252 97.5597 36.644H86.621L86.999 36.0589L87.2598 35.6688C88.2637 34.1823 89.2851 33.1419 91.0018 33.0509C92.8922 32.9643 93.9135 34.3859 94.1351 35.6688H95.4867C95.3651 34.3859 94.3698 33.1074 93.5833 32.6479L86.1516 28.3266L87.7205 19.3416L87.7988 18.8171ZM74.3261 19.8488L79.8717 21.7298V30.3853L75.7863 28.2444L74.3261 19.8488ZM75.6909 38.2132C76.4209 39.21 77.6032 39.9468 79.0024 40.2327C79.1198 40.7572 79.4067 41.3336 79.9628 41.7975C79.7326 43.3448 80.3975 44.7882 82.0664 45.1696C82.2402 45.9583 82.7314 46.5522 83.5527 46.8339L82.3924 48.1689C81.949 48.6803 81.3711 48.8449 80.893 48.7844L75.7126 48.1992C75.9385 47.627 75.3388 46.9639 73.7003 47.2456L75.7387 41.5679L74.4956 38.9369L72.1401 40.9394L71.9662 46.8946L70.9669 46.4049C69.6499 45.8414 69.2674 48.2121 70.519 48.2208L71.0145 48.2252C70.9841 48.468 71.058 48.7366 71.2492 48.8189C71.0145 48.9188 70.945 49.3608 71.2405 49.5169C70.9407 49.6556 70.9015 50.1063 71.1406 50.3012C70.8798 50.7391 70.8407 51.6882 71.7489 51.9266C72.4922 52.1217 72.9571 51.3242 73.1092 50.8604L81.1668 53.3483C82.3096 53.6733 83.1181 53.4914 84.0656 52.6636L86.169 50.8301C85.9039 52.0307 86.3385 53.11 87.2555 53.4696C87.2555 53.4696 87.1251 54.5489 87.1642 55.0302H66.1862V41.8106C66.1862 40.5796 65.8298 39.3486 65.4039 38.2132H75.6909ZM84.3567 43.2278C83.9133 44.0731 83.9568 45.0439 84.4784 45.9237L84.1308 46.2618C82.6184 46.0753 82.0231 43.8259 82.0231 43.8259C81.9925 44.0297 81.9751 44.2247 81.9795 44.4241C81.0971 44.099 80.5411 43.319 80.5844 42.2482C80.9191 42.4347 81.2929 42.5648 81.6926 42.634L81.7971 41.9752C80.7409 41.7931 80.1237 41.1344 79.8891 40.3542C79.8368 40.3498 79.7935 40.3369 79.7455 40.3326C79.9326 40.3455 80.1193 40.3629 80.3106 40.3629C80.9365 40.3629 81.5318 40.2674 82.0881 40.1028C82.5271 40.727 83.305 41.1734 84.0872 41.2601C83.9613 41.7802 84.022 42.426 84.3567 43.2278ZM86.595 49.1743C86.4428 49.3781 86.3211 49.6122 86.2427 49.8679L85.3998 50.6394C85.5692 49.4086 84.7392 47.9564 83.983 47.3627L84.8783 46.4872L85.0563 46.6692C84.7565 47.4537 85.3433 48.9924 86.595 49.1743ZM82.5228 48.7888L83.2181 48.1081C83.922 48.7237 84.8522 50.0976 84.561 51.4067L83.8048 52.1001C83.6483 52.2517 83.4876 52.3601 83.3224 52.4598C83.7961 51.2937 83.192 49.4996 82.5228 48.7888ZM81.0277 49.3652H81.0495C81.3016 49.4041 81.5709 49.3608 81.8143 49.2611C82.3444 50.0152 82.7575 51.7316 82.1229 52.8022C81.7623 52.8109 81.4102 52.7459 81.0797 52.6506L80.8191 52.5724C81.3537 51.7447 81.2798 50.2798 81.0277 49.3652ZM79.2763 49.1485L80.2541 49.2697C80.4107 50.0802 80.3064 51.4802 79.789 52.2779L78.6505 51.9484C79.1502 51.2723 79.3849 49.881 79.2763 49.1485ZM77.2381 48.9014L78.4245 49.0401C78.5417 49.6901 78.3202 51.0727 77.8725 51.7316L76.6643 51.3849C77.1466 50.7478 77.3205 49.6251 77.2381 48.9014ZM72.4357 48.5848C71.8837 48.7626 71.6404 48.3638 71.6622 48.0258C72.7443 47.6315 73.2266 47.8871 73.5439 48.0865C73.8351 48.2686 74.0785 48.7888 74.4695 49.1137C74.4045 49.5557 74.2698 50.1973 74.1089 50.6265C73.0007 50.3446 72.9442 49.3694 73.357 48.7757C73.1266 48.5069 72.8834 48.4375 72.4357 48.5848ZM71.6622 50.7391C71.6622 50.7391 71.9923 50.8778 72.4096 50.9082C72.3618 51.1379 72.1836 51.3546 71.9011 51.2937C71.6665 51.2418 71.5622 50.9557 71.6622 50.7391ZM70.5712 47.575C70.2975 47.3931 70.4191 46.9943 70.7235 46.9943C71.058 47.003 71.5012 47.38 71.9402 47.5663C71.9402 47.5663 70.7885 47.7225 70.5712 47.575ZM71.697 49.8723C71.936 50.102 72.653 50.0152 72.653 50.0152L72.6791 50.1583C72.3661 50.5743 71.497 50.388 71.697 49.8723ZM72.6617 49.3999C72.1488 49.6035 71.6229 49.3261 71.7837 48.9967C72.0228 49.2134 72.6878 49.1051 72.6878 49.1051L72.6617 49.3999ZM73.418 43.4489L72.4357 47.0159L72.7704 41.2601L74.2913 39.9643L75.065 41.6589L73.1092 47.25L73.6265 43.4879C73.6743 43.2191 73.4613 43.1888 73.418 43.4489ZM73.4874 47.7745C73.4874 47.7745 74.5825 47.7225 74.8913 47.8393C75.1172 47.9348 74.965 48.3162 74.6694 48.273C74.361 48.2339 73.4874 47.7745 73.4874 47.7745ZM75.2041 48.6413L76.3948 48.7888C76.4863 49.4387 76.3166 50.5397 75.8906 51.1552L74.739 50.8215C75.0432 50.0976 75.1172 49.4172 75.2041 48.6413ZM94.4264 64.4745C94.4264 67.2308 93.1486 69.3245 91.0236 70.486L91.784 68.9429H91.0451L90.0673 70.9195C89.0548 71.3009 87.9074 71.5132 86.6384 71.5132C82.7618 71.5132 81.7361 71.6692 80.3019 73.0952C78.8633 71.6692 77.8379 71.5132 73.9655 71.5132C72.705 71.5132 71.5579 71.3095 70.5495 70.9281H70.5757L71.5535 68.9429H70.819L69.9629 70.6811C69.7585 70.5857 69.5586 70.4816 69.3674 70.3689L70.0715 68.9429H69.3413L68.8199 70.0049C67.1595 68.7869 66.1817 66.8798 66.1817 64.4745V55.8058H94.4177V64.4745H94.4264ZM95.2129 38.2132C94.7741 39.3486 94.422 40.5796 94.422 41.8106V55.0302H92.8791C92.1794 54.3539 91.5884 52.1001 91.5884 52.1001C91.2061 52.9106 91.6449 54.5531 92.0535 55.0302H90.0673C89.5763 54.3669 89.1504 52.0178 89.1504 52.0178C88.5551 52.6938 88.9331 54.5186 89.3025 55.0302H87.9813C87.8987 54.0895 88.1682 53.0666 88.1682 53.0666C87.4771 52.9409 86.7427 52.5768 86.7469 51.814C87.0946 52.1391 87.2381 52.1348 87.7205 52.1261L88.2811 51.6838C86.4211 51.7447 86.3342 49.7075 87.8118 48.7539C86.3385 48.8016 85.239 47.9263 85.7735 46.3657C84.7263 45.8239 84.3567 44.0558 85.1303 43.2798C84.5697 42.673 84.4784 41.4811 84.8348 40.6706C84.0917 40.6706 83.2572 40.3758 82.7921 39.8687C82.7575 39.886 82.714 39.8991 82.6747 39.9121C83.6049 39.5351 84.3914 38.9456 84.9217 38.2174H95.2129V38.2132ZM89.5892 31.8504C88.0596 32.1149 86.7427 33.9827 85.6648 35.6688L85.5431 35.8638H84.3914L84.3873 36.0633C84.2697 37.3634 83.0313 39.1276 80.3019 39.1276C79.0416 39.1276 78.0899 38.7418 77.438 38.2174C76.873 37.7579 76.5165 37.1902 76.3427 36.6484C76.2775 36.4534 76.2384 36.2539 76.221 36.0633L76.2123 35.8638H75.0693L74.9476 35.6688C73.8655 33.9871 72.5487 32.119 71.0232 31.8504L75.191 29.4361L80.3106 32.2102L85.4214 29.4361L89.5892 31.8504ZM84.8174 28.2444L80.7365 30.3853V21.7298L86.282 19.8488L84.8174 28.2444ZM80.3064 20.785L74.2437 18.3969C74.7564 17.1831 77.1336 16.1473 80.3064 16.1473C83.4745 16.1473 85.8474 17.1831 86.3602 18.3969L80.3064 20.785Z" fill="black"/>
<path fill-rule="evenodd" clip-rule="evenodd" d="M93.7787 46.7558L93.7917 46.0925C91.7534 46.0449 91.2842 43.648 91.2842 43.648C90.6886 45.412 92.2446 46.7296 93.7787 46.7558Z" fill="black"/>
<path fill-rule="evenodd" clip-rule="evenodd" d="M91.2055 50.8169L91.0014 50.1886C89.2631 50.6306 88.3636 47.8827 88.3636 47.8827C87.8072 49.8808 89.7454 51.2939 91.2055 50.8169Z" fill="black"/>
<path fill-rule="evenodd" clip-rule="evenodd" d="M92.4141 48.2684C90.3368 48.5978 89.4851 46.1881 89.4851 46.1881C89.2547 47.5013 90.1066 48.8319 91.4843 48.9705C91.1712 50.6828 92.7662 51.5623 94.1482 50.9513L93.9483 50.3533C92.7488 50.7563 91.6234 49.5729 92.4141 48.2684Z" fill="black"/>
<path fill-rule="evenodd" clip-rule="evenodd" d="M91.1709 41.3901L91.1883 40.727C88.4459 40.1635 88.6763 38.2824 88.6763 38.2824C88.0852 40.0551 89.641 41.3642 91.1709 41.3901Z" fill="black"/>
<path fill-rule="evenodd" clip-rule="evenodd" d="M73.7957 68.9429L72.8136 70.9281H73.5523L74.5303 68.9429H73.7957Z" fill="black"/>
<path fill-rule="evenodd" clip-rule="evenodd" d="M75.2779 68.9429L74.3 70.9281H75.0432L76.0123 68.9429H75.2779Z" fill="black"/>
<path fill-rule="evenodd" clip-rule="evenodd" d="M81.2146 68.9429L80.2366 70.9281H80.9712L81.9533 68.9429H81.2146Z" fill="black"/>
<path fill-rule="evenodd" clip-rule="evenodd" d="M82.7005 68.9429L81.714 70.9281H82.4571L83.4305 68.9429H82.7005Z" fill="black"/>
<path fill-rule="evenodd" clip-rule="evenodd" d="M79.7322 68.9429L78.7503 70.9281H79.4888L80.4666 68.9429H79.7322Z" fill="black"/>
<path fill-rule="evenodd" clip-rule="evenodd" d="M88.4023 70.9281H89.141L90.119 68.9429H89.3802L88.4023 70.9281Z" fill="black"/>
<path fill-rule="evenodd" clip-rule="evenodd" d="M76.7643 68.9429L75.7865 70.9281H76.5252L77.503 68.9429H76.7643Z" fill="black"/>
<path fill-rule="evenodd" clip-rule="evenodd" d="M78.2417 68.9429L77.2639 70.9281H78.007L78.9848 68.9429H78.2417Z" fill="black"/>
<path fill-rule="evenodd" clip-rule="evenodd" d="M74.8867 58.2722C74.752 58.2722 74.6346 58.4022 74.6346 58.5713C74.6346 58.736 74.752 58.8704 74.8867 58.8704C75.0258 58.8704 75.1475 58.736 75.1475 58.5713C75.1432 58.4022 75.0258 58.2722 74.8867 58.2722Z" fill="black"/>
<path fill-rule="evenodd" clip-rule="evenodd" d="M80.3064 13.4689C83.3486 13.4689 85.7865 14.4743 87.1294 15.5536C87.1294 15.5536 87.5338 13.1437 88.8941 11.0287L86.4428 11.3017L85.1606 8.5797L82.6966 9.85831L80.3064 7.49187L77.916 9.85831L75.4431 8.5797L74.1611 11.3017L71.7098 11.0287C73.0746 13.1437 73.4743 15.5536 73.4743 15.5536C74.8216 14.4743 77.264 13.4689 80.3064 13.4689ZM74.5825 12.3853L75.7518 9.9147L77.916 11.0633L80.3064 8.70983L82.6966 11.0633L84.8609 9.9147L86.0169 12.3853L87.4556 12.1643C87.0861 12.8533 86.8079 13.4558 86.5515 14.301C84.9784 13.3865 82.6401 12.6801 80.3064 12.6801C77.9638 12.6801 75.6301 13.3865 74.0567 14.301C73.796 13.4558 73.5223 12.8533 73.1485 12.1643L74.5825 12.3853Z" fill="black"/>
<path fill-rule="evenodd" clip-rule="evenodd" d="M82.8094 8.60141C83.1656 8.63183 83.4829 8.36305 83.5132 8.01188C83.5481 7.65647 83.0265 6.7117 83.0265 6.7117C83.0265 6.7117 82.2485 7.54825 82.2224 7.90366C82.1878 8.25041 82.4571 8.56675 82.8094 8.60141Z" fill="black"/>
<path fill-rule="evenodd" clip-rule="evenodd" d="M86.8246 10.0536C87.142 10.2225 87.5288 10.0969 87.6983 9.78039C87.872 9.46831 87.759 8.39782 87.759 8.39782C87.759 8.39782 86.7247 8.86163 86.5554 9.17796C86.3902 9.49005 86.5119 9.88013 86.8246 10.0536Z" fill="black"/>
<path fill-rule="evenodd" clip-rule="evenodd" d="M77.7989 8.60141C78.1596 8.56675 78.4246 8.25466 78.3943 7.90366C78.3596 7.54825 77.5904 6.7117 77.5904 6.7117C77.5904 6.7117 77.073 7.66088 77.1036 8.01188C77.1297 8.36305 77.4468 8.63183 77.7989 8.60141Z" fill="black"/>
<path fill-rule="evenodd" clip-rule="evenodd" d="M73.7871 10.0536C74.1044 9.88013 74.2219 9.49005 74.0567 9.17796C73.8914 8.86163 72.8529 8.39782 72.8529 8.39782C72.8529 8.39782 72.7443 9.46831 72.9181 9.78039C73.0788 10.0969 73.47 10.2225 73.7871 10.0536Z" fill="black"/>
<path fill-rule="evenodd" clip-rule="evenodd" d="M121.963 32.0715C122.819 31.768 123.479 30.9533 123.81 30.1991C121.632 29.8871 115.848 27.4642 111.093 29.4363C112.875 27.7504 114.474 27.5336 114.626 25.1065C115.365 25.6352 116.613 25.9343 117.317 24.6732C116.826 23.2296 115.587 24.3999 115.413 24.0012C115.17 23.4464 116.973 24.1703 117.36 22.2936C115.956 21.8123 115.539 22.9566 115.287 22.6922C115.057 22.4408 116.178 21.9597 115.352 20.4471C113.892 21.3009 114.652 22.2589 114.344 22.3671C113.97 22.5146 114.266 21.3399 112.649 21.3964C112.488 23.1257 114.166 23.182 113.892 23.4551C113.557 23.7888 113.123 22.4626 111.902 23.1344C111.923 24.5301 113.058 25.297 114.227 24.9676C114.035 27.6204 111.593 27.1262 109.776 30.1168C113.627 32.0846 115.37 35.5172 117.738 37.8925C118.521 37.3377 119.859 34.8759 119.859 34.8759C122.423 36.8566 124.227 34.8844 124.227 34.8844C123.345 33.983 123.31 33.2981 121.963 32.0715ZM118.225 32.5526C118.49 33.1379 119.016 35.1792 117.76 36.7353C116.33 33.8876 114.366 31.4475 112.775 30.3943C112.427 30.1689 112.966 29.7745 113.949 29.6445C116.908 29.0853 120.381 30.3335 122.032 30.7714C121.263 31.3434 120.637 31.6035 119.85 31.6988C121.05 32.7044 121.928 33.5538 122.545 34.4989C121.385 34.7891 120.728 34.0567 118.225 32.5526Z" fill="black"/>
<path fill-rule="evenodd" clip-rule="evenodd" d="M93.5008 76.8228V73.5807C90.9888 74.7292 87.7944 75.661 83.6833 76.0296L83.4964 77.1868C83.8439 77.2345 84.2873 77.2778 84.8783 77.3168C83.3573 77.525 81.3885 77.6246 80.3106 77.6246C79.2285 77.6246 77.2642 77.525 75.7387 77.3168C76.3253 77.2778 76.7687 77.2345 77.1164 77.1868L76.9297 76.0296C72.8182 75.661 69.6195 74.7292 67.1119 73.5807V76.8228L63.7047 78.2183C66.2299 79.5272 69.1329 80.5936 72.4879 81.4561L72.088 82.8127C74.009 83.3763 77.0816 83.9483 80.3019 83.9483C83.5225 83.9483 86.5906 83.3719 88.5158 82.8127L88.1205 81.4561C91.4711 80.5936 94.3831 79.5272 96.9079 78.2183L93.5008 76.8228ZM65.5256 78.292L67.8248 77.3689V74.7292C69.3024 75.2969 71.2406 75.8866 74.022 76.463L72.7184 80.6975C69.8803 80.0473 67.4685 79.1718 65.5256 78.292ZM80.3064 83.1723C77.7117 83.1723 75.1782 82.7867 73.0138 82.2537L74.3915 77.8109C75.3041 78.0233 77.59 78.3006 80.3064 78.3006C83.027 78.3006 85.2997 78.0191 86.2168 77.8109L87.599 82.2537C85.4259 82.7867 82.8966 83.1723 80.3064 83.1723ZM87.8987 80.6975L86.595 76.463C89.3764 75.891 91.3148 75.2969 92.7925 74.7292V77.3689L95.0871 78.292C93.1445 79.1718 90.741 80.0473 87.8987 80.6975Z" fill="black"/>
<path fill-rule="evenodd" clip-rule="evenodd" d="M40.7529 34.8759C40.7529 34.8759 42.0913 37.3377 42.8695 37.8925C45.2424 35.5217 46.9893 32.0889 50.8355 30.1168C49.0146 27.1262 46.5721 27.6291 46.3895 24.9676C47.5587 25.297 48.6887 24.5257 48.7147 23.1344C47.489 22.4626 47.0547 23.7975 46.7244 23.4551C46.4505 23.1735 48.1236 23.1257 47.9673 21.3964C46.3506 21.3443 46.646 22.5146 46.2678 22.3671C45.9637 22.2589 46.7244 21.2967 45.2598 20.4471C44.4383 21.9641 45.564 22.4408 45.3293 22.6922C45.0814 22.9566 44.6554 21.8166 43.2562 22.2936C43.6343 24.1703 45.4465 23.4464 45.2031 24.0012C45.0292 24.3999 43.795 23.2296 43.3083 24.6732C44.0038 25.9385 45.2554 25.6396 45.9898 25.1107C46.1461 27.5421 47.7411 27.7459 49.5274 29.4363C44.7686 27.4642 38.9841 29.8871 36.7979 30.2036C37.1328 30.9533 37.7933 31.7682 38.6494 32.0629C37.3021 33.3025 37.2674 33.9873 36.3852 34.8844C36.3852 34.8844 38.1843 36.8566 40.7529 34.8759ZM38.0584 34.5031C38.6798 33.5582 39.5533 32.7044 40.7616 31.7032C39.9706 31.6035 39.3492 31.3434 38.5755 30.7714C40.2313 30.3335 43.7082 29.0809 46.6722 29.6445C47.6455 29.7745 48.1932 30.1689 47.8369 30.3943C46.2463 31.4475 44.2775 33.8876 42.8476 36.7353C41.596 35.1792 42.1261 33.1421 42.3827 32.5571C39.8836 34.0567 39.232 34.7891 38.0584 34.5031Z" fill="black"/>
<path fill-rule="evenodd" clip-rule="evenodd" d="M78.2241 33.0683V34.4944C78.7151 33.9005 79.6714 34.0176 79.6714 34.0176V36.0764C79.6714 36.0764 79.6366 37.0905 79.2803 37.524H80.3103H81.3402C80.9795 37.0905 80.949 36.0764 80.949 36.0764V34.0218C80.949 34.0218 81.9008 33.9048 82.3921 34.4985V33.0727H80.3103H78.2241V33.0683Z" fill="black"/>
<path d="M11.0177 118.78V108.013H17.3933V104.096H0V108.013H6.37536V118.78H11.0177ZM23.7386 112.641V104.096H19.2512V118.78H23.2126L30.9498 110.235V118.78H35.4374V104.096H31.476L23.7386 112.641ZM50.5348 113.319V118.78H55.0223V104.096H50.5348V109.463H43.3235V104.096H38.836V118.78H43.3235V113.319H50.5348ZM67.5198 118.78C68.5412 118.78 69.4697 118.687 70.3362 118.44C72.6574 117.792 74.1739 115.911 74.1739 113.35C74.1739 110.913 72.874 109.217 70.8004 108.445C69.8102 108.075 68.6342 108.044 67.5198 108.044H62.9086V104.096H58.421V118.78H67.5198ZM66.7462 111.499C67.3652 111.499 67.953 111.499 68.4792 111.684C69.222 111.931 69.6554 112.548 69.6554 113.288C69.6554 114.06 69.222 114.707 68.5103 115.016C68.015 115.232 67.5198 115.232 66.7462 115.232H62.9086V111.499H66.7462ZM82.22 113.227L87.5744 118.78H93.5474L86.0888 111.129L93.2689 104.096H87.6362L82.22 109.618H80.9821V104.096H76.4944V118.78H80.9821V113.227H82.22ZM102.781 103.695C96.7465 103.695 93.1253 107.088 93.1253 111.468C93.1253 115.849 96.7465 119.242 102.781 119.242C108.785 119.242 112.407 115.849 112.407 111.468C112.407 107.088 108.785 103.695 102.781 103.695ZM102.781 115.664C99.7794 115.664 97.8605 113.875 97.8605 111.468C97.8605 109.062 99.7794 107.304 102.781 107.304C105.752 107.304 107.702 109.062 107.702 111.468C107.702 113.875 105.752 115.664 102.781 115.664ZM127.352 103.263H122.864V104.743C117.231 104.867 113.858 107.242 113.858 111.438C113.858 115.633 117.231 117.823 122.864 117.947V119.427H127.352V117.947C133.015 117.823 136.389 115.633 136.389 111.438C136.389 107.242 133.015 104.867 127.352 104.743V103.263ZM122.864 114.8C119.769 114.677 118.407 113.412 118.407 111.438C118.407 109.463 119.769 108.044 122.864 107.921V114.8ZM127.352 107.921C130.478 108.044 131.808 109.463 131.808 111.438C131.808 113.412 130.478 114.677 127.352 114.8V107.921ZM151.319 103.263H146.831V104.743C141.199 104.867 137.825 107.242 137.825 111.438C137.825 115.633 141.199 117.823 146.831 117.947V119.427H151.319V117.947C156.982 117.823 160.356 115.633 160.356 111.438C160.356 107.242 156.982 104.867 151.319 104.743V103.263ZM146.831 114.8C143.736 114.677 142.375 113.412 142.375 111.438C142.375 109.463 143.736 108.044 146.831 107.921V114.8ZM151.319 107.921C154.445 108.044 155.776 109.463 155.776 111.438C155.776 113.412 154.445 114.677 151.319 114.8V107.921Z" fill="white"/>
<path d="M903.431 40.3195C894.088 40.3195 885.737 45.1504 885.737 54.0759C885.737 64.3118 900.547 65.0189 900.547 70.161C900.547 72.3262 898.06 74.2644 893.81 74.2644C887.782 74.2644 883.274 71.5562 883.274 71.5562L881.347 80.563C881.347 80.563 886.537 82.8506 893.429 82.8506C903.646 82.8506 911.683 77.7824 911.683 68.7044C911.683 57.8883 896.814 57.2023 896.814 52.4295C896.814 50.7333 898.855 48.8749 903.092 48.8749C907.872 48.8749 911.772 50.8446 911.772 50.8446L913.658 42.1455C913.658 42.1455 909.415 40.3195 903.431 40.3195ZM817.947 40.976L817.72 42.289C817.72 42.289 821.651 43.0068 825.191 44.4382C829.749 46.0797 830.074 47.0353 830.842 50.0033L839.208 82.1735H850.424L867.7 40.976H856.512L845.409 68.9865L840.879 45.2436C840.464 42.5262 838.36 40.976 835.783 40.976H817.947ZM872.199 40.976L863.422 82.1735H874.092L882.837 40.976H872.199ZM931.707 40.976C929.134 40.976 927.772 42.3501 926.771 44.7511L911.139 82.1735H922.329L924.493 75.9364H938.123L939.441 82.1735H949.313L940.7 40.976H931.707ZM933.162 52.1064L936.478 67.5656H927.594L933.162 52.1064Z" fill="#1434CB"/>
<path d="M999.629 105.115V99.3122C999.629 97.0923 998.274 95.6387 995.949 95.6387C994.785 95.6387 993.52 96.0218 992.652 97.2838C991.974 96.2246 991.003 95.6387 989.547 95.6387C988.576 95.6387 987.605 95.9317 986.837 96.9909V95.8303H984.804V105.115H986.837V99.9883C986.837 98.343 987.707 97.5655 989.06 97.5655C990.416 97.5655 991.093 98.4332 991.093 99.9883V105.115H993.126V99.9883C993.126 98.343 994.097 97.5655 995.35 97.5655C996.705 97.5655 997.383 98.4332 997.383 99.9883V105.115H999.629ZM1029.78 95.8303H1026.48V93.0244H1024.45V95.8303H1022.61V97.6669H1024.45V101.927C1024.45 104.056 1025.32 105.307 1027.64 105.307C1028.51 105.307 1029.48 105.014 1030.16 104.631L1029.57 102.884C1028.99 103.267 1028.31 103.369 1027.82 103.369C1026.85 103.369 1026.47 102.783 1026.47 101.825V97.6669H1029.77V95.8303H1029.78ZM1047.03 95.6273C1045.87 95.6273 1045.09 96.2134 1044.6 96.9796V95.8189H1042.57V105.104H1044.6V99.8757C1044.6 98.3318 1045.28 97.4529 1046.54 97.4529C1046.93 97.4529 1047.41 97.5543 1047.81 97.6445L1048.4 95.7062C1047.99 95.6273 1047.41 95.6273 1047.03 95.6273ZM1020.96 96.5965C1019.99 95.9204 1018.63 95.6273 1017.17 95.6273C1014.85 95.6273 1013.3 96.7881 1013.3 98.6247C1013.3 100.169 1014.47 101.047 1016.5 101.329L1017.47 101.431C1018.53 101.622 1019.12 101.915 1019.12 102.4C1019.12 103.076 1018.34 103.56 1016.98 103.56C1015.63 103.56 1014.56 103.076 1013.88 102.591L1012.91 104.135C1013.97 104.913 1015.43 105.296 1016.88 105.296C1019.59 105.296 1021.15 104.034 1021.15 102.298C1021.15 100.653 1019.88 99.7855 1017.95 99.4925L1016.98 99.3911C1016.11 99.2896 1015.44 99.098 1015.44 98.5233C1015.44 97.8473 1016.11 97.4641 1017.19 97.4641C1018.35 97.4641 1019.51 97.9487 1020.1 98.2416L1020.96 96.5965ZM1075.03 95.6273C1073.87 95.6273 1073.09 96.2134 1072.6 96.9796V95.8189H1070.57V105.104H1072.6V99.8757C1072.6 98.3318 1073.28 97.4529 1074.54 97.4529C1074.93 97.4529 1075.41 97.5543 1075.81 97.6445L1076.4 95.7287C1076 95.6273 1075.43 95.6273 1075.03 95.6273ZM1049.06 100.473C1049.06 103.279 1051 105.307 1054.01 105.307C1055.36 105.307 1056.33 105.014 1057.3 104.248L1056.33 102.603C1055.55 103.188 1054.79 103.47 1053.9 103.47C1052.26 103.47 1051.09 102.31 1051.09 100.473C1051.09 98.7263 1052.26 97.5655 1053.9 97.4754C1054.77 97.4754 1055.55 97.7683 1056.33 98.343L1057.3 96.6979C1056.33 95.9203 1055.36 95.6387 1054.01 95.6387C1051 95.6273 1049.06 97.6669 1049.06 100.473ZM1067.86 100.473V95.8303H1065.83V96.9909C1065.15 96.1232 1064.18 95.6387 1062.91 95.6387C1060.29 95.6387 1058.26 97.6669 1058.26 100.473C1058.26 103.279 1060.29 105.307 1062.91 105.307C1064.27 105.307 1065.24 104.823 1065.83 103.955V105.115H1067.86V100.473ZM1060.4 100.473C1060.4 98.8277 1061.46 97.4754 1063.21 97.4754C1064.86 97.4754 1066.02 98.7375 1066.02 100.473C1066.02 102.118 1064.86 103.47 1063.21 103.47C1061.47 103.369 1060.4 102.107 1060.4 100.473ZM1036.08 95.6273C1033.37 95.6273 1031.42 97.5655 1031.42 100.462C1031.42 103.369 1033.37 105.296 1036.18 105.296C1037.53 105.296 1038.89 104.913 1039.96 104.034L1038.99 102.58C1038.21 103.166 1037.24 103.549 1036.28 103.549C1035.02 103.549 1033.76 102.963 1033.47 101.329H1040.34C1040.34 101.036 1040.34 100.845 1040.34 100.552C1040.43 97.5655 1038.69 95.6273 1036.08 95.6273ZM1036.08 97.374C1037.34 97.374 1038.21 98.1515 1038.4 99.5939H1033.56C1033.75 98.343 1034.62 97.374 1036.08 97.374ZM1086.57 100.473V92.1566H1084.54V96.9909C1083.86 96.1232 1082.89 95.6387 1081.62 95.6387C1079 95.6387 1076.97 97.6669 1076.97 100.473C1076.97 103.279 1079 105.307 1081.62 105.307C1082.98 105.307 1083.95 104.823 1084.54 103.955V105.115H1086.57V100.473ZM1079.11 100.473C1079.11 98.8277 1080.17 97.4754 1081.92 97.4754C1083.57 97.4754 1084.73 98.7375 1084.73 100.473C1084.73 102.118 1083.57 103.47 1081.92 103.47C1080.17 103.369 1079.11 102.107 1079.11 100.473ZM1011.07 100.473V95.8303H1009.04V96.9909C1008.36 96.1232 1007.39 95.6387 1006.12 95.6387C1003.5 95.6387 1001.47 97.6669 1001.47 100.473C1001.47 103.279 1003.5 105.307 1006.12 105.307C1007.48 105.307 1008.45 104.823 1009.04 103.955V105.115H1011.07V100.473ZM1003.51 100.473C1003.51 98.8277 1004.58 97.4754 1006.32 97.4754C1007.97 97.4754 1009.14 98.7375 1009.14 100.473C1009.14 102.118 1007.97 103.47 1006.32 103.47C1004.58 103.369 1003.51 102.107 1003.51 100.473Z" fill="white"/>
<path d="M1050.81 25.3116H1020.28V80.0543H1050.81V25.3116Z" fill="#FF5A00"/>
<path d="M1022.31 52.683C1022.31 41.5609 1027.55 31.6896 1035.59 25.3116C1029.68 20.6689 1022.21 17.8631 1014.07 17.8631C994.785 17.8631 979.182 33.4363 979.182 52.683C979.182 71.9297 994.785 87.5027 1014.07 87.5027C1022.21 87.5027 1029.68 84.6968 1035.59 80.0543C1027.54 73.7663 1022.31 63.805 1022.31 52.683Z" fill="#EB001B"/>
<path d="M1092 52.683C1092 71.9297 1076.4 87.5027 1057.11 87.5027C1048.97 87.5027 1041.51 84.6968 1035.59 80.0543C1043.73 73.6649 1048.87 63.805 1048.87 52.683C1048.87 41.5609 1043.63 31.6896 1035.59 25.3116C1041.5 20.6689 1048.96 17.8631 1057.1 17.8631C1076.4 17.8631 1092 33.5377 1092 52.683Z" fill="#F79E1B"/>
</g>
<defs>
<linearGradient id="paint0_linear_3_7" x1="199.844" y1="80.5451" x2="192.644" y2="59.915" gradientUnits="userSpaceOnUse">
<stop offset="0.14" stop-color="#F1E813"/>
<stop offset="0.3" stop-color="#E6E418"/>
<stop offset="0.58" stop-color="#C9DA26"/>
<stop offset="0.89" stop-color="#A2CC39"/>
</linearGradient>
<linearGradient id="paint1_linear_3_7" x1="200.383" y1="42.4595" x2="218.68" y2="35.5479" gradientUnits="userSpaceOnUse">
<stop offset="0.06" stop-color="#0FA7DF"/>
<stop offset="0.54" stop-color="#0098F8"/>
<stop offset="0.92" stop-color="#0290EA"/>
</linearGradient>
<linearGradient id="paint2_linear_3_7" x1="216.557" y1="85.7131" x2="237.219" y2="81.0861" gradientUnits="userSpaceOnUse">
<stop offset="0.12" stop-color="#A2CC39"/>
<stop offset="0.28" stop-color="#86C239"/>
<stop offset="0.87" stop-color="#219F38"/>
</linearGradient>
<linearGradient id="paint3_linear_3_7" x1="217.031" y1="35.1955" x2="234.707" y2="40.6027" gradientUnits="userSpaceOnUse">
<stop offset="0.06" stop-color="#0290EA"/>
<stop offset="0.79" stop-color="#0C89CA"/>
</linearGradient>
<linearGradient id="paint4_linear_3_7" x1="199.194" y1="79.5419" x2="218.446" y2="86.6742" gradientUnits="userSpaceOnUse">
<stop offset="0.13" stop-color="#F1E813"/>
<stop offset="0.3" stop-color="#EAE616"/>
<stop offset="0.53" stop-color="#D8DF1F"/>
<stop offset="0.8" stop-color="#BAD52D"/>
<stop offset="0.98" stop-color="#A2CC39"/>
</linearGradient>
<linearGradient id="paint5_linear_3_7" x1="192.723" y1="62.1249" x2="200.554" y2="41.9335" gradientUnits="userSpaceOnUse">
<stop offset="0.07" stop-color="#A2CC39"/>
<stop offset="0.26" stop-color="#81C45E"/>
<stop offset="0.92" stop-color="#0FA7DF"/>
</linearGradient>
<clipPath id="clip0_3_7">
<rect width="1092" height="123" fill="white"/>
</clipPath>
</defs>
</svg>
